<svg width="136" height="63" viewBox="0 0 136 63" fill="none" xmlns="http://www.w3.org/2000/svg">
<path d="M1.03217 45.286C1.03217 44.8827 0.974288 44.5872 0.863354 44.3949C0.747597 44.2027 0.52573 44.1042 0.183282 44.1042H0V43.7993H4.9872C5.67692 43.7993 6.01936 44.1135 6.01936 44.742V45.6987H5.70586C5.70586 45.2204 5.58045 44.8686 5.32482 44.6435C5.06919 44.4184 4.69298 44.3058 4.19137 44.3058H2.40678V47.359H5.1126V47.8655H2.40196V51.5799H1.03217V45.286Z" fill="#F1EFDC"/>
<path d="M8.64795 51.2797C8.05952 50.9186 7.60131 50.4214 7.27816 49.793C6.955 49.1645 6.79102 48.4657 6.79102 47.6919C6.79102 46.9227 6.95018 46.2193 7.27816 45.5908C7.60131 44.9624 8.05952 44.4652 8.64795 44.1041C9.23638 43.743 9.91645 43.5601 10.6882 43.5601C11.4647 43.5601 12.1496 43.743 12.738 44.1041C13.3265 44.4652 13.7847 44.9624 14.1078 45.5908C14.431 46.2193 14.595 46.9181 14.595 47.6919C14.595 48.4611 14.431 49.1645 14.1078 49.793C13.7847 50.4214 13.3265 50.9186 12.738 51.2797C12.1496 51.6408 11.4647 51.8237 10.6882 51.8237C9.92128 51.8237 9.24121 51.6408 8.64795 51.2797ZM12.4631 50.3605C12.8875 49.7226 13.0998 48.8362 13.0998 47.6966C13.0998 46.5569 12.8875 45.6658 12.4631 45.0327C12.0387 44.3949 11.4454 44.076 10.6882 44.076C9.9261 44.076 9.33767 44.3949 8.91805 45.0327C8.49843 45.6705 8.28621 46.5569 8.28621 47.6966C8.28621 48.8362 8.49843 49.7273 8.91805 50.3605C9.33767 50.9983 9.93092 51.3172 10.6882 51.3172C11.4454 51.3172 12.0387 50.9983 12.4631 50.3605Z" fill="#F1EFDC"/>
<path d="M17.431 51.2797C16.8426 50.9186 16.3844 50.4214 16.0612 49.793C15.7381 49.1645 15.5741 48.4657 15.5741 47.6919C15.5741 46.9227 15.7333 46.2193 16.0612 45.5908C16.3844 44.9624 16.8426 44.4652 17.431 44.1041C18.0195 43.743 18.6995 43.5601 19.4712 43.5601C20.2478 43.5601 20.9327 43.743 21.5211 44.1041C22.1095 44.4652 22.5677 44.9624 22.8909 45.5908C23.2141 46.2193 23.378 46.9181 23.378 47.6919C23.378 48.4611 23.2141 49.1645 22.8909 49.793C22.5677 50.4214 22.1095 50.9186 21.5211 51.2797C20.9327 51.6408 20.2478 51.8237 19.4712 51.8237C18.7044 51.8237 18.0243 51.6408 17.431 51.2797ZM21.2462 50.3605C21.6706 49.7226 21.8829 48.8362 21.8829 47.6966C21.8829 46.5569 21.6706 45.6658 21.2462 45.0327C20.8217 44.3949 20.2285 44.076 19.4712 44.076C18.7092 44.076 18.1208 44.3949 17.7011 45.0327C17.2815 45.6705 17.0693 46.5569 17.0693 47.6966C17.0693 48.8362 17.2815 49.7273 17.7011 50.3605C18.1208 50.9983 18.714 51.3172 19.4712 51.3172C20.2285 51.3172 20.8217 50.9983 21.2462 50.3605Z" fill="#F1EFDC"/>
<path d="M24.9891 45.286C24.9891 44.8827 24.9312 44.5872 24.8203 44.3949C24.7045 44.2027 24.4826 44.1042 24.1402 44.1042H23.9569V43.7993H27.2078C28.8187 43.7993 30.039 44.137 30.8734 44.8123C31.7078 45.4877 32.1226 46.4304 32.1226 47.6451C32.1226 48.4236 31.949 49.1083 31.5969 49.704C31.2448 50.2996 30.7239 50.7592 30.0342 51.0922C29.3444 51.4205 28.5052 51.5893 27.5309 51.5893H24.9939V45.286H24.9891ZM29.0406 50.7217C29.5036 50.4403 29.8605 50.0416 30.121 49.5164C30.3814 48.9958 30.5116 48.3861 30.5116 47.692C30.5116 47.0072 30.3814 46.4069 30.121 45.8863C29.8605 45.3658 29.5036 44.9624 29.0406 44.6763C28.5775 44.3903 28.0518 44.2449 27.4634 44.2449C27.1547 44.2449 26.793 44.2871 26.3733 44.3762V51.0312C26.6145 51.0781 26.8123 51.1062 26.9618 51.1203C27.1113 51.1344 27.2897 51.1391 27.4875 51.1391C28.0615 51.1391 28.5824 50.9984 29.0406 50.7217Z" fill="#F1EFDC"/>
<path d="M36.8445 45.286C36.8445 44.8827 36.7867 44.5872 36.6757 44.3949C36.56 44.2027 36.3333 44.1042 35.9957 44.1042H35.8124V43.7993H41.089C41.7739 43.7993 42.1211 44.1135 42.1211 44.742V45.6987H41.8076C41.8076 44.7701 41.3012 44.3058 40.2931 44.3058H38.2192V47.3027H41.4218V47.8092H38.2192V51.0781H40.3172C40.8189 51.0781 41.224 50.9796 41.5279 50.7826C41.8366 50.5857 42.0922 50.2433 42.2899 49.7555L42.5793 49.8493L42.1935 50.853C42.1067 51.0969 41.9861 51.2798 41.8414 51.4017C41.6967 51.5236 41.4796 51.5846 41.1999 51.5846H36.8445V45.286Z" fill="#F1EFDC"/>
<path d="M46.1822 47.8467L44.47 45.3329C43.9298 44.5169 43.3462 44.0807 42.724 44.0338V43.7993H44.1083C44.4941 43.7993 44.8414 43.9213 45.1404 44.1651C45.4395 44.409 45.7144 44.7185 45.9652 45.0984L47.0938 46.7634L49.4717 43.804H50.1759L47.4218 47.237L49.3366 50.0557C49.573 50.4028 49.8382 50.6982 50.1324 50.9468C50.4267 51.1953 50.7257 51.3314 51.0247 51.3548V51.5893H49.7128C49.0231 51.5893 48.4009 51.1578 47.8462 50.2902L46.5247 48.3345L43.9057 51.5893H43.1919L46.1822 47.8467Z" fill="#F1EFDC"/>
<path d="M52.0183 45.286C52.0183 44.8827 51.9604 44.5872 51.8494 44.3949C51.7337 44.2027 51.507 44.1042 51.1694 44.1042H50.9861V43.7993H54.2514C55.0617 43.7993 55.79 43.9588 56.446 44.2824C57.1019 44.606 57.4299 45.2344 57.4299 46.1677C57.4299 46.7821 57.2611 47.2558 56.9186 47.5888C56.581 47.9218 56.2 48.1469 55.7804 48.2548C55.3607 48.3626 54.9701 48.4189 54.618 48.4189H53.3929V51.5799H52.0231V45.286H52.0183ZM54.1887 47.9781C54.6517 47.9781 55.052 47.8327 55.4041 47.5372C55.7514 47.2417 55.925 46.768 55.925 46.1161C55.925 45.4642 55.7514 44.9906 55.409 44.6951C55.0665 44.3996 54.671 44.2542 54.2273 44.2542C54.0151 44.2542 53.7401 44.2871 53.388 44.348V47.9827H54.1887V47.9781Z" fill="#F1EFDC"/>
<path d="M60.0344 51.2797C59.446 50.9186 58.9878 50.4214 58.6646 49.793C58.3415 49.1645 58.1775 48.4657 58.1775 47.6919C58.1775 46.9227 58.3367 46.2193 58.6646 45.5908C58.9878 44.9624 59.446 44.4652 60.0344 44.1041C60.6229 43.743 61.3029 43.5601 62.0746 43.5601C62.8512 43.5601 63.5361 43.743 64.1245 44.1041C64.7129 44.4652 65.1711 44.9624 65.4943 45.5908C65.8174 46.2193 65.9814 46.9181 65.9814 47.6919C65.9814 48.4611 65.8174 49.1645 65.4943 49.793C65.1711 50.4214 64.7129 50.9186 64.1245 51.2797C63.5361 51.6408 62.8512 51.8237 62.0746 51.8237C61.3077 51.8237 60.6277 51.6408 60.0344 51.2797ZM63.8544 50.3605C64.2788 49.7226 64.4911 48.8362 64.4911 47.6966C64.4911 46.5569 64.2788 45.6658 63.8544 45.0327C63.43 44.3949 62.8367 44.076 62.0795 44.076C61.3174 44.076 60.729 44.3949 60.3093 45.0327C59.8897 45.6705 59.6775 46.5569 59.6775 47.6966C59.6775 48.8362 59.8897 49.7273 60.3093 50.3605C60.729 50.9983 61.3222 51.3172 62.0795 51.3172C62.8367 51.3172 63.43 50.9983 63.8544 50.3605Z" fill="#F1EFDC"/>
<path d="M71.9236 51.322C71.5764 51.064 71.2098 50.6232 70.8191 49.9947L69.6037 48.0109H68.9718V51.5846H67.5876V45.286C67.5876 44.8827 67.5297 44.5872 67.4188 44.3949C67.303 44.2027 67.0763 44.1042 66.7387 44.1042H66.5554V43.7993H69.8304C70.631 43.7993 71.3593 43.9447 72.0201 44.2402C72.6809 44.5356 73.0089 45.0937 73.0089 45.9192C73.0089 46.5101 72.8256 46.9556 72.4638 47.2652C72.1021 47.57 71.6246 47.7905 71.0458 47.9265L72.3192 49.99C72.6037 50.4543 72.869 50.7826 73.1198 50.9749C73.3706 51.1672 73.6262 51.2798 73.8819 51.3126V51.5846C73.8095 51.6174 73.6938 51.6456 73.5442 51.669C73.3899 51.6925 73.2356 51.7019 73.0812 51.7019C72.6616 51.7019 72.2757 51.5752 71.9236 51.322ZM69.7677 47.5653C70.0426 47.5653 70.3127 47.5091 70.5828 47.4012C70.8481 47.2933 71.0699 47.1104 71.2484 46.8665C71.4269 46.618 71.5137 46.3037 71.5137 45.9145C71.5137 45.5299 71.4269 45.211 71.2484 44.9671C71.0699 44.7185 70.8481 44.5403 70.5876 44.4231C70.3272 44.3105 70.0571 44.2496 69.7821 44.2496C69.5892 44.2496 69.3191 44.2824 68.9815 44.3434V47.5653H69.7677V47.5653Z" fill="#F1EFDC"/>
<path d="M76.6793 44.3056H75.7243C75.2565 44.3056 74.8996 44.4182 74.6488 44.6339C74.4028 44.8544 74.2774 45.2061 74.2774 45.6939H73.9639V44.7371C73.9639 44.1087 74.3063 43.7944 74.996 43.7944H80.6729V44.3009H78.0539V51.5797H76.6842V44.3056H76.6793Z" fill="#F1EFDC"/>
<path d="M86.0942 51.2987C85.5058 50.9469 85.0524 50.4685 84.7437 49.8588C84.4302 49.2491 84.2759 48.5691 84.2759 47.814C84.2759 47.0355 84.4495 46.3226 84.792 45.6707C85.1344 45.0235 85.6071 44.5076 86.2052 44.1324C86.8032 43.7572 87.464 43.5649 88.1827 43.5649C88.8627 43.5649 89.4463 43.6541 89.9287 43.8323C90.4158 44.0105 90.7775 44.2403 91.0187 44.5217C91.1538 44.6952 91.2406 44.911 91.2743 45.1783C91.3081 45.4409 91.3226 45.8161 91.3226 46.3039H91.0091C90.7004 44.8172 89.8804 44.0761 88.5444 44.0761C87.6955 44.0761 87.0203 44.3669 86.5187 44.9485C86.0171 45.53 85.7663 46.4868 85.7663 47.814C85.7663 48.4425 85.8627 49.0193 86.0556 49.5493C86.2486 50.0746 86.5573 50.5014 86.972 50.8297C87.3868 51.158 87.9126 51.3174 88.5444 51.3174C89.1184 51.3174 89.6344 51.172 90.0975 50.8859C90.5605 50.5999 90.9415 50.1824 91.2502 49.6431L91.6023 49.9011C91.2213 50.5764 90.7582 51.0688 90.2132 51.369C89.6682 51.6739 88.9881 51.8239 88.1827 51.8239C87.382 51.8239 86.6827 51.6457 86.0942 51.2987Z" fill="#F1EFDC"/>
<path d="M94.3082 51.2797C93.7198 50.9186 93.2616 50.4214 92.9384 49.793C92.6153 49.1645 92.4513 48.4657 92.4513 47.6919C92.4513 46.9227 92.6105 46.2193 92.9384 45.5908C93.2616 44.9624 93.7198 44.4652 94.3082 44.1041C94.8967 43.743 95.5767 43.5601 96.3485 43.5601C97.125 43.5601 97.8099 43.743 98.3983 44.1041C98.9868 44.4652 99.445 44.9624 99.7681 45.5908C100.091 46.2193 100.255 46.9181 100.255 47.6919C100.255 48.4611 100.091 49.1645 99.7681 49.793C99.445 50.4214 98.9868 50.9186 98.3983 51.2797C97.8099 51.6408 97.125 51.8237 96.3485 51.8237C95.5767 51.8237 94.8967 51.6408 94.3082 51.2797ZM98.1234 50.3605C98.5478 49.7226 98.7601 48.8362 98.7601 47.6966C98.7601 46.5569 98.5478 45.6658 98.1234 45.0327C97.699 44.3949 97.1057 44.076 96.3485 44.076C95.5864 44.076 94.998 44.3949 94.5783 45.0327C94.1587 45.6705 93.9465 46.5569 93.9465 47.6966C93.9465 48.8362 94.1587 49.7273 94.5783 50.3605C94.998 50.9983 95.5912 51.3172 96.3485 51.3172C97.1057 51.3172 97.699 50.9983 98.1234 50.3605Z" fill="#F1EFDC"/>
<path d="M102.604 50.8435C102.093 50.2713 101.842 49.3896 101.842 48.2031V45.2906C101.842 44.906 101.789 44.6153 101.678 44.4183C101.567 44.2213 101.36 44.1181 101.051 44.1134H100.892V43.8086H102.117C102.406 43.8086 102.628 43.8508 102.783 43.9399C102.937 44.029 103.043 44.1744 103.111 44.3808C103.173 44.5871 103.207 44.892 103.207 45.2953L103.221 48.5642C103.236 50.3276 103.906 51.2046 105.233 51.2046C106.091 51.2046 106.709 50.9655 107.085 50.4918C107.461 50.0181 107.649 49.2536 107.649 48.2078V43.8086H108.209V48.2078C108.209 48.9957 108.107 49.6429 107.91 50.1541C107.712 50.6653 107.384 51.0546 106.921 51.3172C106.458 51.5798 105.831 51.7112 105.04 51.7112C103.926 51.7018 103.115 51.4157 102.604 50.8435Z" fill="#F1EFDC"/>
<path d="M110.881 45.6049V51.5846H110.321V45.2157C110.321 44.8639 110.239 44.5872 110.07 44.3949C109.906 44.2027 109.622 44.1042 109.226 44.1042H109.14V43.7993H109.969C110.389 43.7993 110.736 43.8603 111.011 43.9775C111.286 44.0948 111.522 44.273 111.715 44.5075L115.926 49.3897V43.7993H116.485V51.655H116.046L110.881 45.6049Z" fill="#F1EFDC"/>
<path d="M119.736 51.2987C119.148 50.9469 118.694 50.4685 118.386 49.8588C118.072 49.2491 117.918 48.5691 117.918 47.814C117.918 47.0355 118.091 46.3226 118.434 45.6707C118.776 45.0235 119.249 44.5076 119.847 44.1324C120.445 43.7572 121.106 43.5649 121.825 43.5649C122.505 43.5649 123.088 43.6541 123.571 43.8323C124.058 44.0105 124.42 44.2403 124.661 44.5217C124.796 44.6952 124.883 44.911 124.916 45.1783C124.95 45.4409 124.965 45.8161 124.965 46.3039H124.651C124.342 44.8172 123.522 44.0761 122.186 44.0761C121.338 44.0761 120.662 44.3669 120.161 44.9485C119.659 45.53 119.408 46.4868 119.408 47.814C119.408 48.4425 119.505 49.0193 119.698 49.5493C119.891 50.0746 120.199 50.5014 120.614 50.8297C121.029 51.158 121.555 51.3174 122.186 51.3174C122.76 51.3174 123.276 51.172 123.739 50.8859C124.202 50.5999 124.584 50.1824 124.892 49.6431L125.244 49.9011C124.863 50.5764 124.4 51.0688 123.855 51.369C123.31 51.6739 122.63 51.8239 121.825 51.8239C121.019 51.8239 120.325 51.6457 119.736 51.2987Z" fill="#F1EFDC"/>
<path d="M127.024 51.4627C126.87 51.3783 126.764 51.2329 126.696 51.0218C126.633 50.8108 126.6 50.5012 126.6 50.1026V43.7993H127.984V50.0979C127.984 50.5012 128.042 50.7967 128.153 50.989C128.264 51.1813 128.49 51.2798 128.833 51.2798H129.002V51.5846H127.69C127.4 51.5846 127.178 51.5471 127.024 51.4627Z" fill="#F1EFDC"/>
<path d="M130.4 45.286C130.4 44.8827 130.342 44.5872 130.231 44.3949C130.116 44.2027 129.894 44.1042 129.551 44.1042H129.368V43.7993H130.68C130.969 43.7993 131.191 43.8415 131.346 43.9306C131.5 44.0197 131.606 44.1651 131.674 44.3715C131.736 44.5778 131.77 44.8827 131.77 45.286V51.0781H136.005V51.5846H130.4V45.286V45.286Z" fill="#F1EFDC"/>
<path d="M54.4202 58.1742C54.4202 57.8834 54.3768 57.663 54.2852 57.5223C54.1984 57.3816 54.0199 57.3112 53.7546 57.3112H53.5665V57.1377H57.6036C58.1389 57.1377 58.409 57.3675 58.409 57.8271V58.4743H58.2209C58.2209 57.813 57.8254 57.4848 57.0344 57.4848H55.2691V59.7265H57.8302V60.0689H55.2691V62.4795H56.9283C57.3624 62.4795 57.7048 62.4092 57.9508 62.2638C58.1968 62.1184 58.3946 61.8745 58.5393 61.5322L58.7274 61.5744L58.3946 62.3951C58.2788 62.6812 58.0425 62.8266 57.6855 62.8266H54.4154V58.1742H54.4202Z" fill="#F1EFDC"/>
<path d="M60.9895 62.5873C60.4975 62.3106 60.1165 61.9354 59.8416 61.4617C59.5666 60.988 59.4268 60.4674 59.4268 59.9C59.4268 59.3559 59.5473 58.8588 59.7885 58.4133C60.0297 57.9677 60.3721 57.616 60.8158 57.358C61.2596 57.1001 61.7805 56.9688 62.3641 56.9688C62.9091 56.9688 63.377 57.0344 63.7725 57.161C64.168 57.2924 64.4574 57.4565 64.6406 57.6582C64.7419 57.7754 64.8046 57.9255 64.8336 58.1131C64.8625 58.3007 64.877 58.5399 64.877 58.8213H64.6889C64.5683 58.3148 64.3416 57.9396 64.004 57.6863C63.6712 57.4377 63.2178 57.3111 62.6487 57.3111C62.1374 57.3111 61.7081 57.4331 61.3705 57.6769C61.0281 57.9208 60.7773 58.2397 60.6181 58.629C60.4589 59.0183 60.3769 59.4403 60.3769 59.8953C60.3769 60.8661 60.5843 61.5696 61.0039 62.0011C61.4187 62.4325 61.9686 62.653 62.6535 62.653C62.9766 62.653 63.2516 62.6295 63.4783 62.5732C63.7049 62.5216 63.922 62.4466 64.1246 62.3481V60.8473C64.1246 60.6504 64.1583 60.4815 64.2307 60.3408C64.2982 60.1954 64.4525 60.0782 64.6792 59.9844C64.9107 59.8906 65.2484 59.8437 65.6873 59.8437V60.0172C65.4027 60.0172 65.2146 60.0829 65.1181 60.2142C65.0217 60.3455 64.9734 60.5519 64.9734 60.8333V62.4513C64.631 62.6389 64.2741 62.7796 63.9027 62.864C63.5313 62.9484 63.1117 62.9953 62.6535 62.9953C62.0313 63 61.4766 62.864 60.9895 62.5873Z" fill="#F1EFDC"/>
<path d="M68.4751 60.4766L66.8641 58.263C66.7001 58.0519 66.5603 57.8831 66.4493 57.7612C66.3336 57.6392 66.1985 57.5407 66.0442 57.4563C65.8898 57.3719 65.7065 57.325 65.4895 57.3156V57.1421H66.3432C66.6615 57.1421 66.9268 57.2265 67.139 57.3953C67.3561 57.5642 67.5635 57.794 67.7661 58.0895L69.1407 60.0264L71.123 57.1421H71.5474L69.3288 60.4157V62.8263H68.4751V60.4766Z" fill="#F1EFDC"/>
<path d="M72.6809 58.1742C72.6809 57.8834 72.6375 57.663 72.5458 57.5223C72.459 57.3816 72.2805 57.3112 72.0153 57.3112H71.8271V57.1377H74.2918C74.8995 57.1377 75.4446 57.2549 75.9317 57.4894C76.4188 57.7239 76.66 58.1836 76.66 58.8589C76.66 59.3091 76.5346 59.6515 76.279 59.8907C76.0282 60.1299 75.7436 60.294 75.4301 60.3738C75.1166 60.4535 74.832 60.4957 74.5716 60.4957H73.5297V62.8219H72.676V58.1742H72.6809ZM74.2484 60.2002C74.451 60.2002 74.6632 60.1533 74.8947 60.0595C75.1214 59.9657 75.3192 59.8157 75.4783 59.6093C75.6375 59.4029 75.7195 59.1403 75.7195 58.8261C75.7195 58.5118 75.6375 58.2492 75.4783 58.0429C75.3192 57.8365 75.1214 57.6864 74.8947 57.5926C74.668 57.4988 74.451 57.4519 74.2484 57.4519C74.0265 57.4519 73.7902 57.4801 73.5394 57.5363V60.2049H74.2484V60.2002Z" fill="#F1EFDC"/>
<path d="M79.337 57.4848H78.4833C77.6923 57.4848 77.2967 57.813 77.2967 58.4743H77.1086V57.8271C77.1086 57.3675 77.3787 57.1377 77.9141 57.1377H82.3225V57.4801H80.1907V62.8219H79.337V57.4848Z" fill="#F1EFDC"/>
<path d="M136 60.9834H86.9238V61.7994H136V60.9834Z" fill="#F1EFDC"/>
<path d="M49.0761 60.9834H0V61.7994H49.0761V60.9834Z" fill="#F1EFDC"/>
<path d="M50.0794 14.8482C50.0794 14.8482 49.6019 14.6465 49.4379 14.1681C49.2064 13.5069 49.2015 12.25 50.417 10.6601C51.8157 8.83099 53.3784 7.45215 53.3784 7.45215C53.3784 7.45215 53.499 9.6189 52.6164 12.7002C51.9074 15.1765 50.5376 15.0076 50.0794 14.8482Z" fill="#F1EFDC"/>
<path d="M51.9556 16.0021C51.9556 16.0021 51.7675 15.5472 51.97 15.0266C52.2257 14.37 52.9974 13.3758 54.9653 12.8505C57.2273 12.2502 59.3303 12.1001 59.3303 12.1001C59.3303 12.1001 58.0473 13.8776 55.4042 15.7723C53.2771 17.3012 52.1099 16.4242 51.9556 16.0021Z" fill="#F1EFDC"/>
<path d="M56.4026 11.1055C56.4026 11.1055 56.2097 10.7537 56.3447 10.3832C56.528 9.86264 57.1502 9.0888 58.6936 8.67609C60.4686 8.2024 62.1229 8.08984 62.1229 8.08984C62.1229 8.08984 61.1197 9.48745 59.0409 10.9742C57.3721 12.1654 56.61 11.4197 56.4026 11.1055Z" fill="#F1EFDC"/>
<path d="M54.893 10.1111C54.893 10.1111 54.5216 9.94697 54.3914 9.57647C54.2129 9.05588 54.2129 8.07099 55.1776 6.82816C56.2869 5.39773 57.5216 4.32373 57.5216 4.32373C57.5216 4.32373 57.6036 6.02618 56.8994 8.43681C56.3303 10.3784 55.2547 10.2377 54.893 10.1111Z" fill="#F1EFDC"/>
<path d="M59.012 7.25518C59.012 7.25518 58.5682 6.86123 58.5634 6.27499C58.5586 5.46363 59.0312 4.08009 60.9702 2.7716C63.2033 1.26144 65.4461 0.304688 65.4461 0.304688C65.4461 0.304688 64.7564 2.72939 62.6197 5.8013C60.9027 8.26821 59.4605 7.59286 59.012 7.25518Z" fill="#F1EFDC"/>
<path d="M44.5568 20.3824C44.5568 20.3824 44.1034 20.1808 43.8285 19.5945C43.4812 18.8394 43.4764 17.5075 44.962 15.4345C46.5825 13.1787 48.4539 11.5747 48.4539 11.5747C48.4539 11.5747 48.6662 13.718 47.716 17.3855C46.9877 20.1761 45.2128 20.5935 44.5568 20.3824Z" fill="#F1EFDC"/>
<path d="M46.9395 21.8598C46.9395 21.8598 46.5295 21.3345 46.6742 20.7061C46.8575 19.8947 47.8173 18.8723 50.2965 18.1172C52.9444 17.3106 55.438 17.1089 55.438 17.1089C55.438 17.1089 53.9766 19.2475 50.9042 21.5643C48.4395 23.4262 47.2868 22.2115 46.9395 21.8598Z" fill="#F1EFDC"/>
<path d="M45.7192 20.7339C45.7192 20.7339 38.4651 29.3352 37.7947 39.5312H39.1355C39.1355 39.5312 39.1789 31.2675 45.7192 20.7339Z" fill="#F1EFDC"/>
<path d="M35.5036 39.4706C35.7448 35.8312 36.7818 32.417 38.0358 29.4951L28.1917 39.5316H35.4988L35.5036 39.4706Z" fill="#F1EFDC"/>
<path d="M93.5317 39.3485C93.4159 39.4142 93.2953 39.4705 93.1699 39.5268H107.447L95.4272 27.8394C95.4368 27.9051 95.4561 27.966 95.461 28.0317C95.5188 28.5242 95.5478 29.2042 95.5478 30.0859H94.8822C94.6024 28.7587 94.0815 27.7503 93.3243 27.0609C92.567 26.3715 91.5831 26.0244 90.3677 26.0244C88.858 26.0244 87.6618 26.545 86.7888 27.5815C85.9158 28.618 85.4769 30.3673 85.4769 32.8342C85.4769 34.6633 85.8773 36.1828 86.6779 37.3928C87.4786 38.6028 88.7085 39.2078 90.3677 39.2078C91.4046 39.2078 92.3548 38.9405 93.223 38.4059C94.0912 37.8712 94.7905 37.1114 95.3211 36.1172L96.0976 36.6987C95.3983 37.9134 94.5349 38.7951 93.5317 39.3485Z" fill="#F1EFDC"/>
<path d="M65.8802 25.4851C67.1391 25.4851 67.7709 26.062 67.7709 27.2157V29.0542H67.1053C67.1053 28.1443 66.8738 27.4878 66.406 27.075C65.9381 26.6623 65.2484 26.4607 64.3272 26.4607H61.2355V31.9713H66.1262V32.9422H61.2355V39.5315H70.3272V28.2944C70.3272 27.5581 70.2259 27.0141 70.0185 26.6623C69.8111 26.3106 69.3963 26.1324 68.7742 26.1324H68.5523V25.4851H78.353C79.6119 25.4851 80.2437 26.062 80.2437 27.2157V29.0542H79.5781C79.5781 28.1631 79.3466 27.5065 78.8788 27.0891C78.4109 26.6717 77.7164 26.4607 76.8 26.4607H73.2211V31.8635H78.9994V32.8343H73.2163V38.7764H77.017C77.8611 38.7764 78.5653 38.5935 79.1296 38.223C79.6939 37.8572 80.1617 37.2194 80.5283 36.3095L81.1264 36.5253L80.4801 38.2324C80.2872 38.753 80.0556 39.1329 79.7904 39.3768C79.7277 39.433 79.6601 39.4799 79.583 39.5221H86.374C86.1618 39.4283 85.9544 39.3252 85.7615 39.2126C84.657 38.5701 83.8177 37.6978 83.239 36.5862C82.6602 35.4747 82.3708 34.2225 82.3708 32.8249C82.3708 31.3851 82.6891 30.0672 83.3258 28.8807C83.9624 27.6941 84.8403 26.7561 85.9592 26.0714C87.0782 25.3867 88.3274 25.0443 89.7069 25.0443C91.0091 25.0443 92.0992 25.2084 92.9722 25.532C93.0252 25.5508 93.0687 25.5743 93.1217 25.5977L66.7918 0L57.9171 25.4851H65.8802Z" fill="#F1EFDC"/>
<path d="M58.3464 28.2942C58.3464 27.5579 58.2403 27.0138 58.0329 26.6621C57.9412 26.5073 57.8062 26.3948 57.6325 26.3057L53.0264 39.5266H58.3415V28.2942H58.3464Z" fill="#F1EFDC"/>
</svg>
