<svg width="382" height="258" viewBox="0 0 382 258" fill="none" xmlns="http://www.w3.org/2000/svg">
<path d="M381.227 158.67H249.85V160.734H381.227V158.67Z" fill="#1E3583"/>
<path d="M131.378 158.67H0.00012207V160.734H131.378V158.67Z" fill="#1E3583"/>
<path d="M6.96894 118.422C7.48516 118.422 7.74327 118.164 8.00138 117.906C8.25949 117.648 8.5176 117.132 8.5176 116.874C8.5176 116.358 8.25949 116.1 8.00138 115.842C7.74327 115.584 7.22705 115.326 6.96894 115.326C6.45272 115.326 6.19462 115.584 5.93651 115.842C5.6784 116.1 5.42029 116.616 5.42029 116.874C5.42029 117.39 5.6784 117.648 5.93651 117.906C6.19462 118.164 6.45272 118.422 6.96894 118.422Z" fill="#1E3583"/>
<path d="M3.09773 118.422C3.61394 118.422 3.87205 118.164 4.13016 117.906C4.38827 117.648 4.64638 117.132 4.64638 116.874C4.64638 116.358 4.38827 116.1 4.13016 115.842C3.87205 115.584 3.35583 115.326 3.09773 115.326C2.58151 115.326 2.3234 115.584 2.06529 115.842C1.80718 116.1 1.54907 116.616 1.54907 116.874C1.54907 117.39 1.80718 117.648 2.06529 117.906C2.06529 118.164 2.58151 118.422 3.09773 118.422Z" fill="#1E3583"/>
<path d="M21.6813 133.645C21.1651 133.645 20.907 133.903 20.6489 134.161C20.3908 134.419 20.1327 134.935 20.1327 135.193C20.1327 135.709 20.3908 135.967 20.6489 136.225C20.907 136.483 21.4232 136.741 21.6813 136.741C22.1976 136.741 22.4557 136.483 22.7138 136.225C23.23 136.225 23.23 135.709 23.23 135.193C23.23 134.935 23.23 134.419 22.9719 134.161C22.4557 133.903 22.1976 133.645 21.6813 133.645Z" fill="#1E3583"/>
<path d="M17.8092 133.645C17.2929 133.645 17.0348 133.903 16.7767 134.161C16.5186 134.419 16.2605 134.935 16.2605 135.193C16.2605 135.709 16.5186 135.967 16.7767 136.225C17.0348 136.483 17.551 136.741 17.8092 136.741C18.3254 136.741 18.5835 136.483 18.8416 136.225C19.0997 135.967 19.3578 135.451 19.3578 135.193C19.3578 134.677 19.0997 134.419 18.8416 134.161C18.5835 133.903 18.0673 133.645 17.8092 133.645Z" fill="#1E3583"/>
<path d="M25.8109 117.907C25.8109 118.165 25.8109 118.165 26.069 118.423C26.3271 118.681 26.3271 118.681 26.5852 118.681C26.5852 118.423 27.1015 118.165 28.1339 118.165C29.1663 117.907 29.9407 117.907 30.715 117.907C30.9731 117.907 30.9731 117.907 30.9731 117.649C30.9731 117.391 30.9731 117.391 30.9731 117.133C30.9731 116.875 30.9731 116.875 30.715 116.617C30.715 116.359 30.4569 116.359 30.1988 116.359C30.1988 116.359 29.9407 116.359 29.6825 116.359C29.4244 116.359 29.4244 116.359 29.1663 116.359C28.6501 116.359 28.392 116.101 27.8758 115.843C27.6177 115.585 27.3596 115.069 27.3596 114.811C27.3596 114.553 27.3596 114.295 27.6177 114.295C27.6177 114.037 27.8758 114.037 27.8758 113.779C28.1339 113.779 28.392 113.779 28.392 114.037C28.392 114.295 28.6501 114.553 28.6501 114.553C28.9082 114.553 29.1663 114.811 29.4244 114.811C29.9407 114.811 30.1988 114.553 30.1988 114.037C30.1988 113.521 29.9407 113.263 29.6825 113.005C29.4244 112.747 28.9082 112.747 28.392 112.747C27.8758 112.747 27.3596 112.747 26.8433 113.005C26.3271 113.263 26.069 113.521 26.069 114.037C25.8109 114.295 25.8109 114.811 25.8109 115.069C25.8109 115.327 25.8109 115.843 26.069 116.101C26.3271 116.359 26.5852 116.617 26.8433 116.617C26.3271 116.617 26.069 116.617 25.8109 116.875C26.069 117.391 25.8109 117.649 25.8109 117.907Z" fill="#1E3583"/>
<path d="M28.3922 119.97C27.876 119.97 27.6179 119.97 27.3598 120.228C27.1017 120.486 26.8436 120.486 26.5855 120.744C26.3274 121.002 26.3274 121.26 26.3274 121.26C26.8436 121.518 27.1017 121.776 27.3598 122.034C27.6179 122.292 27.876 122.55 27.876 123.066C28.1341 123.582 28.1341 124.098 28.1341 124.872C28.1341 126.162 27.876 126.936 27.6179 127.71C27.3598 128.226 26.8436 128.742 26.3274 128.742H24.2625H22.4557C22.1976 128.742 21.9395 128.484 21.6814 128.226C21.4233 127.968 21.4233 127.452 21.4233 126.936V121.002C21.4233 120.486 21.4233 120.228 21.1652 119.712C20.9071 119.454 20.3908 119.196 19.8746 119.196C19.3584 119.196 18.8422 119.454 18.5841 119.712C18.326 120.744 18.0679 121.26 18.0679 121.518V128.226C17.8098 128.484 17.5516 128.742 17.0354 128.742C16.7773 129 16.5192 129 16.003 129H15.2287H11.6151H10.0665V125.904C10.0665 124.356 9.80838 123.066 9.55027 122.034C9.29216 121.26 8.77595 120.486 8.00162 120.228C7.22729 119.97 6.45297 119.712 5.42053 119.712C4.3881 119.712 3.61377 119.97 2.83944 120.228C2.06512 120.486 1.29079 121.002 0.774571 122.034C0.258353 123.066 0.000244141 124.356 0.000244141 125.904C0.000244141 129.774 1.5489 131.58 4.6462 131.58C5.42053 131.58 6.19486 131.322 6.96918 131.064C7.22729 131.322 7.4854 131.322 7.74351 131.58C8.25973 131.58 8.51784 131.58 9.03406 131.58H11.6151H15.4868H16.2611C16.7773 131.58 17.0354 131.58 17.5516 131.322C17.8098 131.064 18.326 131.064 18.5841 130.806C19.1003 131.322 19.8746 131.58 20.649 131.58H24.2625H26.5855C27.6179 131.58 28.6503 131.322 29.1665 130.548C29.9409 130.032 30.4571 129 30.7152 127.968C30.9733 126.936 31.2314 125.646 31.2314 124.614C31.2314 123.066 30.9733 122.034 30.4571 121.26C30.199 120.486 29.4247 119.97 28.3922 119.97ZM6.96918 129H4.6462C4.12999 129 3.61377 128.742 3.35566 127.968C3.09755 127.194 3.09755 126.42 3.09755 125.646C3.09755 124.614 3.35566 123.84 3.61377 123.324C3.87188 122.808 4.3881 122.55 5.16242 122.55C5.67864 122.55 5.93675 122.55 6.45297 122.808C6.71108 123.066 6.96918 123.324 6.96918 123.84V129Z" fill="#1E3583"/>
<path d="M36.1356 115.584C35.6193 115.584 35.3612 115.584 35.1031 115.842C34.845 116.1 34.5869 116.358 34.3288 116.616C34.0707 116.874 34.0707 117.132 34.0707 117.132H34.3288C34.5869 117.132 34.5869 117.39 34.845 117.648C35.1031 117.906 35.1031 118.422 35.1031 118.938V129.774C35.1031 130.29 35.1031 130.548 35.3612 131.064C35.6193 131.322 36.1355 131.58 36.6518 131.58C37.168 131.58 37.6842 131.322 37.9423 131.064C38.2004 130.806 38.2004 130.29 38.2004 130.032V118.68C38.2004 117.906 37.9423 117.132 37.4261 116.616C37.4261 115.842 36.9099 115.584 36.1356 115.584Z" fill="#1E3583"/>
<path d="M45.9431 118.422C46.4593 118.422 46.7174 118.164 47.2337 117.906C47.4918 117.648 47.7499 117.132 47.7499 116.616C47.7499 116.1 47.4918 115.842 47.2337 115.326C46.9755 115.068 46.4593 114.81 45.9431 114.81C45.4269 114.81 44.9107 115.068 44.6526 115.326C44.3945 115.584 44.1364 116.1 44.1364 116.616C44.1364 117.132 44.3945 117.39 44.6526 117.906C45.1688 118.164 45.4269 118.422 45.9431 118.422Z" fill="#1E3583"/>
<path d="M60.1403 118.422C60.6565 118.422 60.9146 118.164 61.4308 117.906C61.6889 117.648 61.947 117.132 61.947 116.616C61.947 116.1 61.6889 115.842 61.4308 115.326C61.1727 115.068 60.6565 114.81 60.1403 114.81C59.624 114.81 59.1078 115.068 58.8497 115.326C58.5916 115.584 58.3335 116.1 58.3335 116.616C58.3335 117.132 58.5916 117.39 58.8497 117.906C59.3659 118.164 59.624 118.422 60.1403 118.422Z" fill="#1E3583"/>
<path d="M70.464 115.584C69.9478 115.584 69.6897 115.584 69.4316 115.842C69.1735 116.1 68.9154 116.358 68.6573 116.616C68.3992 116.874 68.3992 117.132 68.3992 117.132H68.6573C68.9154 117.132 68.9154 117.39 69.1735 117.648C69.6897 118.164 69.6897 118.68 69.6897 119.196V127.452C69.6897 127.968 69.6897 128.484 69.4316 128.742C69.4316 129 69.1735 129 68.6573 129H67.1086H65.56C65.8181 128.484 66.0762 127.71 66.0762 127.194C66.0762 126.678 66.3343 125.904 66.3343 125.388C66.3343 124.356 66.0762 123.324 65.56 122.55C65.0437 121.776 64.2694 121.002 63.237 120.486C62.2045 119.97 60.914 119.712 59.6235 119.712C58.591 119.712 57.5586 119.97 56.7843 120.228C56.0099 120.486 55.2356 121.002 54.9775 121.26C54.4613 121.776 54.2032 122.292 53.9451 122.55L58.591 128.742H53.4289H50.3315C50.5897 128.226 50.8478 127.452 50.8478 126.936C50.8478 126.42 51.1059 125.646 51.1059 125.13C51.1059 124.098 50.8478 123.066 50.0734 122.034C49.5572 121.26 48.7829 120.486 48.0086 119.97C47.2342 119.454 46.4599 119.196 45.6856 119.196C45.1694 119.196 44.6531 119.196 44.1369 119.454C43.6207 119.712 42.8464 119.97 42.3302 120.228C41.8139 120.744 41.5558 121.26 41.5558 121.776C41.5558 122.292 41.8139 122.808 42.0721 123.066C42.3302 123.324 42.8464 123.582 43.3626 123.582C43.6207 123.582 43.8788 123.582 44.1369 123.582C44.395 123.582 44.6531 123.324 44.9113 123.324C44.9113 122.55 44.9113 122.292 45.1694 121.776C45.4275 121.518 45.6856 121.26 45.9437 121.26C46.4599 121.518 46.718 122.034 47.2342 122.55C47.4923 123.066 47.7505 123.84 47.7505 124.872C47.7505 125.904 47.4923 126.678 46.9761 127.194C46.2018 128.742 45.1694 129 43.8788 129H42.3302C41.8139 129 41.5558 129.258 41.5558 129.516C41.2977 129.774 41.2977 130.032 41.2977 130.29C41.2977 130.548 41.2977 130.806 41.5558 131.064C41.8139 131.322 42.0721 131.58 42.3302 131.58H46.2018C47.2342 131.58 48.0086 131.322 48.5248 130.806C49.2991 131.322 50.0734 131.58 51.1059 131.58H53.4289H61.9464C62.7208 131.58 63.4951 131.322 64.2694 131.064C64.5275 131.58 65.3019 131.58 66.0762 131.58H67.1086H69.6897C70.7221 131.58 71.4965 131.322 72.0127 130.548C72.5289 129.774 72.787 129 72.787 127.71V118.68C72.787 117.906 72.5289 117.132 72.0127 116.616C71.7546 115.842 71.2384 115.584 70.464 115.584ZM62.7208 127.452C62.4627 127.968 62.2045 128.484 61.4302 128.742L57.3005 123.324C57.8167 122.808 58.591 122.55 59.3654 122.55C59.8816 122.55 60.6559 122.55 61.1721 123.066C61.6883 123.324 62.2046 123.582 62.4627 124.098C62.7208 124.614 62.9789 125.13 62.9789 125.646C63.237 126.162 62.9789 126.678 62.7208 127.452Z" fill="#1E3583"/>
<path d="M77.6912 115.584C77.175 115.584 76.9169 115.584 76.6588 115.842C76.4007 116.1 76.1426 116.358 75.8845 116.616C75.6263 116.874 75.6263 117.132 75.6263 117.132H75.8845C76.1426 117.132 76.1426 117.39 76.4007 117.648C76.6588 117.906 76.6588 118.422 76.6588 118.938V129.774C76.6588 130.29 76.6588 130.548 76.9169 131.064C77.4331 131.58 77.9493 131.58 78.4655 131.58C78.9818 131.58 79.498 131.322 79.7561 131.064C80.0142 130.806 80.0142 130.29 80.0142 130.032V118.68C80.0142 117.906 79.7561 117.132 79.2399 116.616C78.9818 115.842 78.4655 115.584 77.6912 115.584Z" fill="#1E3583"/>
<path d="M99.6309 119.455C100.147 119.455 100.405 119.197 100.663 118.939C100.921 118.681 101.18 118.165 101.18 117.907C101.18 117.391 100.921 117.133 100.663 116.875C100.405 116.617 99.889 116.359 99.6309 116.359C99.1147 116.359 98.8566 116.617 98.5985 116.875C98.0823 117.133 98.0823 117.391 98.0823 117.907C98.0823 118.423 98.3404 118.681 98.5985 118.939C98.8566 119.197 99.1147 119.455 99.6309 119.455Z" fill="#1E3583"/>
<path d="M95.5006 119.455C96.0168 119.455 96.2749 119.197 96.533 118.939C96.7911 118.681 97.0492 118.165 97.0492 117.907C97.0492 117.391 96.7911 117.133 96.533 116.875C96.2749 116.617 95.7587 116.359 95.5006 116.359C94.9843 116.359 94.7262 116.617 94.4681 116.875C94.21 117.133 93.9519 117.649 93.9519 117.907C93.9519 118.423 94.21 118.681 94.4681 118.939C94.7262 119.197 95.2424 119.455 95.5006 119.455Z" fill="#1E3583"/>
<path d="M103.243 119.969C102.727 119.969 102.469 119.969 102.211 120.227C101.952 120.485 101.694 120.485 101.436 120.743C101.178 121.001 101.178 121.259 101.178 121.259C101.694 121.517 101.952 121.775 102.211 122.033C102.469 122.291 102.727 122.549 102.727 123.065C102.985 123.581 102.985 124.097 102.985 124.871C102.985 126.161 102.727 126.935 102.469 127.709C102.211 128.225 101.694 128.741 101.178 128.741H93.1767C92.9186 128.741 92.6605 128.483 92.4024 128.225C92.1443 127.967 92.1443 127.451 92.1443 126.935V122.291C92.1443 121.775 92.1443 121.517 91.8862 121.001C91.6281 121.259 91.1119 121.259 90.5956 121.259C90.0794 121.259 89.5632 121.517 89.3051 121.775C89.047 122.033 89.047 122.549 89.047 122.807V128.225C89.047 129.257 89.3051 130.031 89.8213 130.805C90.3375 131.321 91.1119 131.579 92.1443 131.579H101.178C102.211 131.579 103.243 131.321 103.759 130.547C104.534 130.031 105.05 128.999 105.308 127.967C105.566 126.935 105.824 125.645 105.824 124.613C105.824 123.065 105.566 122.033 105.05 121.259C104.792 120.485 104.275 119.969 103.243 119.969Z" fill="#1E3583"/>
<path d="M125.44 122.293C125.182 122.293 125.44 122.293 125.44 122.293C125.698 122.293 125.698 122.035 125.956 122.035L125.44 122.293C125.956 122.293 126.215 122.293 126.215 122.809C126.473 123.067 126.473 123.583 126.473 124.357C126.731 124.357 126.989 124.615 127.247 124.615C127.505 124.615 127.763 124.615 128.021 124.615C128.538 124.615 128.796 124.357 129.312 124.099C129.57 123.841 129.828 123.325 129.828 122.809C129.828 122.035 129.57 121.519 129.054 121.261C128.538 120.745 128.021 120.487 127.247 120.487C126.731 120.229 125.956 120.229 125.698 120.229C124.924 120.229 124.15 120.487 123.375 121.003C122.601 121.519 121.827 122.035 121.311 123.067C120.794 123.841 120.278 124.873 120.278 126.163C120.278 127.453 120.536 128.485 121.052 129.517H118.988H115.116H113.825C113.567 129.517 113.309 129.259 113.051 129.001C112.793 128.743 112.793 128.227 112.793 127.711V118.681C112.793 117.907 112.535 117.133 112.019 116.617C111.502 116.101 110.986 115.843 110.212 115.843C109.696 115.843 109.438 115.843 109.179 116.101C108.921 116.359 108.663 116.617 108.405 116.875C108.147 117.133 108.147 117.391 108.147 117.391H108.405C108.663 117.391 108.663 117.649 108.921 117.907C109.179 118.165 109.179 118.681 109.179 119.197V127.711C109.179 128.743 109.438 129.775 109.954 130.549C110.47 131.323 111.244 131.581 112.277 131.581H114.6H118.471H119.504C120.536 131.581 121.311 131.323 121.827 130.807C122.601 131.323 123.375 131.581 124.15 131.581H128.021C128.538 131.581 128.796 131.323 128.796 131.065C129.054 130.807 129.054 130.549 129.054 130.291C129.054 130.033 129.054 129.775 128.796 129.517C128.538 129.259 128.279 129.001 128.021 129.001H126.473C125.182 129.001 124.15 128.743 123.634 128.227C123.117 127.711 122.859 126.937 122.859 125.905C122.859 125.131 123.117 124.357 123.375 123.841C124.408 123.067 124.924 122.551 125.44 122.293Z" fill="#1E3583"/>
<path d="M143.767 118.422C144.283 118.422 144.541 118.164 145.058 117.906C145.316 117.648 145.574 117.132 145.574 116.616C145.574 116.1 145.316 115.842 145.058 115.326C144.799 115.068 144.283 114.81 143.767 114.81C143.251 114.81 142.735 115.068 142.476 115.326C142.218 115.584 141.96 116.1 141.96 116.616C141.96 117.132 142.218 117.39 142.476 117.906C142.735 118.164 143.251 118.422 143.767 118.422Z" fill="#1E3583"/>
<path d="M148.154 131.581H160.544C161.576 131.581 162.609 131.323 163.383 130.807C164.157 131.323 164.932 131.581 165.964 131.581H168.029H170.61C171.384 131.581 171.9 131.323 172.417 130.807C173.191 131.323 173.965 131.323 174.74 131.323H176.03H178.611C179.644 131.323 180.418 131.065 180.934 130.291C181.45 129.517 181.709 128.743 181.709 127.453V118.681C181.709 117.907 181.45 117.133 180.934 116.617C180.418 116.101 179.902 115.843 179.128 115.843C178.611 115.843 178.353 115.843 178.095 116.101C177.837 116.359 177.579 116.617 177.321 116.875C177.063 117.133 177.063 117.391 177.063 117.391H177.321C177.579 117.391 177.579 117.649 177.837 117.907C178.095 118.165 178.095 118.681 178.095 119.197V127.453C178.095 127.969 178.095 128.485 177.837 128.743C178.353 129.001 178.095 129.001 177.837 129.001H176.288H173.707C173.707 128.485 173.965 128.227 173.965 127.711V118.681C173.965 117.907 173.707 117.133 173.191 116.617C172.675 116.101 172.159 115.843 171.384 115.843C170.868 115.843 170.61 115.843 170.352 116.101C170.094 116.359 169.836 116.617 169.577 116.875C169.319 117.133 169.319 117.391 169.319 117.391H169.577C169.836 117.391 169.836 117.649 170.094 117.907C170.352 118.165 170.352 118.681 170.352 119.197V127.453C170.352 127.969 170.352 128.485 170.094 128.743C170.094 129.001 169.836 129.001 169.577 129.001H168.029H164.932C165.448 127.969 165.448 126.937 165.448 125.905C165.448 124.357 165.19 123.325 164.415 122.293C163.641 121.519 162.867 120.745 161.834 120.487C160.802 120.229 159.769 119.971 158.737 119.971C157.446 119.971 156.414 120.229 155.381 120.745C154.349 121.261 153.833 121.777 153.575 122.293C153.317 121.519 152.542 121.261 151.768 121.261C151.252 121.261 150.736 121.519 150.219 121.777C149.961 122.035 149.703 122.293 149.445 122.551C149.703 122.551 149.961 122.809 150.219 123.067C150.477 123.325 150.477 123.583 150.477 124.099V129.001H147.896H146.09C145.831 129.001 145.573 128.743 145.315 128.485C145.057 128.227 145.057 127.711 145.057 127.195V121.261C145.057 120.745 145.057 120.487 144.799 119.971C144.541 119.713 144.025 119.455 143.508 119.455C142.992 119.455 142.476 119.713 142.218 119.971C141.96 120.229 141.96 120.745 141.96 121.003V127.711C141.702 127.969 141.444 128.227 140.927 128.227C140.669 128.227 140.153 128.485 139.895 128.485H139.379H138.088C137.83 128.485 137.572 128.227 137.314 127.969C137.056 127.711 137.056 127.195 137.056 126.679V118.681C137.056 117.907 136.798 117.133 136.281 116.617C135.765 116.101 135.249 115.843 134.475 115.843C133.958 115.843 133.7 115.843 133.442 116.101C133.184 116.359 132.926 116.617 132.668 116.875C132.41 117.133 132.41 117.391 132.41 117.391H132.668C132.926 117.391 132.926 117.649 133.184 117.907C133.442 118.165 133.442 118.681 133.442 119.197V127.711C133.442 128.743 133.7 129.775 134.217 130.549C134.733 131.323 135.507 131.581 136.54 131.581H139.379H140.153C140.669 131.581 140.927 131.581 141.444 131.323C141.702 131.065 142.218 131.065 142.476 130.807C143.25 131.323 144.025 131.581 144.799 131.581H148.154ZM153.833 125.131C154.091 124.357 154.865 123.841 155.64 123.325C156.672 122.809 157.446 122.551 158.479 122.551C159.511 122.551 160.286 122.809 161.06 123.583C161.834 124.099 162.092 125.131 162.092 126.421C162.092 126.937 162.092 127.453 161.834 127.969C161.576 128.485 161.318 128.743 161.06 129.001C161.06 129.001 160.802 129.001 160.544 129.001H153.833V125.131Z" fill="#1E3583"/>
<path d="M197.196 139.319C196.938 139.577 196.68 140.093 196.68 140.351C196.68 140.867 196.938 141.125 197.196 141.383C197.454 141.641 197.97 141.899 198.228 141.899C198.744 141.899 199.003 141.641 199.261 141.383C199.519 141.125 199.777 140.609 199.777 140.351C199.777 139.835 199.519 139.577 199.261 139.319C199.003 139.061 198.486 138.803 198.228 138.803C197.97 139.061 197.712 139.061 197.196 139.319Z" fill="#1E3583"/>
<path d="M200.034 137.255C202.099 137.255 203.906 136.997 205.454 136.481C206.745 135.965 207.777 135.191 208.552 134.159C209.068 133.127 209.584 132.095 209.584 131.063C209.584 129.515 209.068 128.483 208.035 127.967C207.003 127.451 205.971 126.935 204.422 126.935C203.906 126.935 203.39 126.935 203.131 126.935C202.615 126.935 202.357 127.193 201.841 127.193C201.841 126.419 202.099 125.645 202.357 125.129C202.615 124.355 203.131 123.839 203.648 123.323C204.164 122.807 204.938 122.549 205.713 122.549C205.971 122.549 206.487 122.549 206.745 122.807C207.261 122.807 207.519 123.065 207.777 123.065C207.777 122.807 208.035 122.549 208.035 122.291C208.035 121.775 207.777 121.259 207.261 120.743C206.745 120.227 206.229 119.969 205.196 119.969C204.164 119.969 203.131 120.227 202.099 120.743C201.067 121.259 200.55 122.291 199.776 123.323C199.26 124.355 199.002 125.645 199.002 127.193C199.002 127.709 199.002 128.483 199.26 128.999C199.518 129.515 199.776 129.773 200.55 129.773C200.55 129.773 201.067 129.773 201.583 129.773C202.357 129.515 203.131 129.515 203.648 129.515C205.454 129.515 206.229 130.031 206.229 131.321C206.229 132.353 205.713 133.127 204.938 133.643C204.164 134.417 202.615 134.675 200.55 134.675C196.679 134.675 194.614 133.385 194.614 130.547C194.614 129.773 194.872 128.741 195.13 128.225C195.388 127.451 195.904 126.935 196.421 126.677C196.421 126.419 196.162 125.903 195.904 125.645C195.646 125.387 195.13 125.129 194.614 125.129C194.098 125.129 193.581 125.387 193.065 125.645C192.549 125.903 192.033 126.419 191.775 127.193C191.517 127.967 191.258 128.999 191.258 130.289C191.258 132.095 191.775 133.901 193.065 135.191C194.356 136.739 196.679 137.255 200.034 137.255Z" fill="#1E3583"/>
<path d="M201.325 139.319C201.067 139.577 200.809 140.093 200.809 140.351C200.809 140.867 201.067 141.125 201.325 141.383C201.583 141.641 202.099 141.899 202.358 141.899C202.874 141.899 203.132 141.641 203.39 141.383C203.648 141.125 203.906 140.609 203.906 140.351C203.906 139.835 203.648 139.577 203.39 139.319C203.132 139.061 202.616 138.803 202.358 138.803C201.841 139.061 201.583 139.061 201.325 139.319Z" fill="#1E3583"/>
<path d="M213.457 137.257C215.005 137.257 216.296 136.741 216.812 135.967C217.328 134.935 217.844 134.161 217.844 132.871V131.581H220.167H224.039H226.362C227.394 131.581 228.427 131.323 228.943 130.549C229.717 130.033 230.234 129.001 230.492 127.969C230.75 126.937 231.008 125.647 231.008 124.615C231.008 123.067 230.75 122.035 230.234 121.261C229.717 120.487 228.943 119.971 228.169 119.971C227.653 119.971 227.394 119.971 227.136 120.229C226.878 120.487 226.62 120.487 226.362 120.745C226.104 121.003 226.104 121.261 226.104 121.261C226.62 121.519 226.878 121.777 227.136 122.035C227.394 122.293 227.652 122.551 227.652 123.067C227.911 123.583 227.911 124.099 227.911 124.873C227.911 126.163 227.653 126.937 227.394 127.711C227.136 128.227 226.62 128.743 226.104 128.743H223.781H219.909H217.586V121.261C217.586 120.745 217.328 120.487 217.07 120.229C216.812 119.971 216.296 119.713 216.038 119.713C215.521 119.713 215.263 119.971 215.005 120.229C214.747 120.487 214.489 120.745 214.489 121.261V133.129C214.489 133.645 214.231 133.903 213.973 134.161C213.715 134.419 213.198 134.419 212.682 134.419C212.166 134.419 211.65 134.419 211.134 134.161C210.617 133.903 210.101 133.645 209.843 133.387C209.843 133.387 209.843 133.645 209.843 133.903C209.843 134.677 210.101 135.193 210.617 135.967C211.392 136.999 212.166 137.257 213.457 137.257Z" fill="#1E3583"/>
<path d="M225.071 134.161C224.554 134.419 224.554 134.935 224.554 135.193C224.554 135.709 224.813 135.967 225.071 136.225C225.329 136.483 225.845 136.741 226.103 136.741C226.619 136.741 226.877 136.483 227.136 136.225C227.394 135.967 227.652 135.451 227.652 135.193C227.652 134.677 227.394 134.419 227.136 134.161C226.877 133.903 226.361 133.645 226.103 133.645C225.587 133.645 225.329 133.903 225.071 134.161Z" fill="#1E3583"/>
<path d="M228.943 134.161C228.685 134.419 228.427 134.935 228.427 135.193C228.427 135.709 228.685 135.967 228.943 136.225C229.201 136.483 229.717 136.741 229.975 136.741C230.492 136.741 230.75 136.483 231.008 136.225C231.266 135.967 231.524 135.451 231.524 135.193C231.524 134.677 231.266 134.419 231.008 134.161C230.75 133.903 230.233 133.645 229.975 133.645C229.717 133.645 229.201 133.903 228.943 134.161Z" fill="#1E3583"/>
<path d="M272.305 118.422C272.822 118.422 273.08 118.164 273.338 117.906C273.596 117.648 273.854 117.132 273.854 116.874C273.854 116.358 273.596 116.1 273.338 115.842C273.08 115.584 272.564 115.326 272.305 115.326C271.789 115.326 271.531 115.584 271.273 115.842C271.015 116.1 270.757 116.616 270.757 116.874C270.757 117.39 271.015 117.648 271.273 117.906C271.531 118.164 271.789 118.422 272.305 118.422Z" fill="#1E3583"/>
<path d="M268.175 118.422C268.691 118.422 268.949 118.164 269.208 117.906C269.466 117.648 269.724 117.132 269.724 116.874C269.724 116.358 269.466 116.1 269.208 115.842C268.949 115.584 268.433 115.326 268.175 115.326C267.659 115.326 267.401 115.584 267.143 115.842C266.885 116.1 266.626 116.616 266.626 116.874C266.626 117.39 266.885 117.648 267.143 117.906C267.401 118.164 267.917 118.422 268.175 118.422Z" fill="#1E3583"/>
<path d="M278.241 115.584C277.725 115.584 277.467 115.584 277.209 115.842C276.951 116.1 276.693 116.358 276.435 116.616C276.177 116.874 276.177 117.132 276.177 117.132H276.435C276.693 117.132 276.693 117.39 276.951 117.648C277.209 117.906 277.209 118.422 277.209 118.938V127.194C277.209 127.71 277.209 128.226 276.951 128.484C276.693 128.742 276.435 129 276.177 129H274.628H272.821C272.563 129 272.305 128.742 272.047 128.484C271.789 128.226 271.789 127.71 271.789 127.194V121.26C271.789 120.744 271.789 120.486 271.531 119.97C271.272 119.712 270.756 119.454 270.24 119.454C269.724 119.454 269.208 119.712 268.949 119.97C268.691 120.228 268.691 120.744 268.691 121.002V127.71C268.433 127.968 268.175 128.226 267.659 128.226C267.401 128.226 266.885 128.484 266.627 128.484H265.852H262.755C263.271 127.452 263.271 126.42 263.271 125.388C263.271 123.84 263.013 122.808 262.239 121.776C261.464 121.002 260.69 120.228 259.658 119.97C258.625 119.712 257.593 119.454 256.56 119.454C255.27 119.454 254.237 119.712 253.205 120.228C252.172 120.744 251.656 121.26 251.398 121.776C251.14 121.002 250.366 120.744 249.591 120.744C249.075 120.744 248.559 121.002 248.043 121.26C247.785 121.518 247.526 121.776 247.268 122.034C247.526 122.034 247.785 122.292 248.043 122.55C248.301 122.808 248.301 123.066 248.301 123.582V129H245.72H242.622C242.88 128.484 243.139 127.71 243.139 127.194C243.139 126.678 243.397 125.904 243.397 125.388C243.397 124.356 243.139 123.324 242.364 122.292C241.848 121.518 241.074 120.744 240.299 120.228C239.525 119.712 238.751 119.454 237.976 119.454C237.46 119.454 236.944 119.454 236.428 119.712C235.912 119.97 235.137 120.228 234.621 120.486C234.105 121.002 233.847 121.518 233.847 122.034C233.847 122.55 234.105 123.066 234.363 123.324C234.621 123.582 235.137 123.84 235.653 123.84C235.912 123.84 236.17 123.84 236.428 123.84C236.686 123.84 236.944 123.582 237.202 123.582C237.202 122.808 237.202 122.55 237.46 122.034C237.718 121.776 237.976 121.518 238.235 121.518C238.751 121.776 239.009 122.292 239.525 122.808C239.783 123.324 240.041 124.098 240.041 125.13C240.041 126.162 239.783 126.936 239.267 127.452C238.751 127.968 237.718 128.226 236.428 128.226H234.879C234.363 128.226 234.105 128.484 234.105 128.742C233.847 129 233.847 129.258 233.847 129.516C233.847 129.774 233.847 130.032 234.105 130.29C234.621 131.58 234.879 131.58 235.137 131.58H239.009C240.041 131.58 240.816 131.322 241.332 130.806C242.106 131.322 242.88 131.58 243.913 131.58H246.236H258.625C259.658 131.58 260.69 131.322 261.464 130.806C262.239 131.322 263.013 131.58 264.045 131.58H266.11H266.885C267.401 131.58 267.659 131.58 268.175 131.322C268.433 131.064 268.95 131.064 269.208 130.806C269.982 131.322 270.756 131.58 271.531 131.58H275.144H277.725C278.758 131.58 279.532 131.322 280.048 130.548C280.564 129.774 280.823 129 280.823 127.71V118.68C280.823 117.906 280.564 117.132 280.048 116.616C279.532 115.842 279.016 115.584 278.241 115.584ZM259.916 127.71C259.658 128.226 259.399 128.484 259.141 128.742C258.883 129 258.625 129 258.367 129H251.656V125.13C251.914 124.356 252.689 123.84 253.463 123.324C254.495 122.808 255.27 122.55 256.302 122.55C257.335 122.55 258.109 122.808 258.883 123.582C259.658 124.098 259.916 125.13 259.916 126.42C260.174 126.936 260.174 127.452 259.916 127.71Z" fill="#1E3583"/>
<path d="M285.469 115.584C284.953 115.584 284.695 115.584 284.436 115.842C284.178 116.1 283.92 116.358 283.662 116.616C283.404 116.874 283.404 117.132 283.404 117.132H283.662C283.92 117.132 283.92 117.39 284.178 117.648C284.436 117.906 284.436 118.422 284.436 118.938V129.774C284.436 130.29 284.436 130.548 284.695 131.064C284.953 131.322 285.469 131.58 285.985 131.58C286.501 131.58 287.018 131.322 287.276 131.064C287.534 130.806 287.534 130.29 287.534 130.032V118.68C287.534 117.906 287.276 117.132 286.759 116.616C286.759 115.842 285.985 115.584 285.469 115.584Z" fill="#1E3583"/>
<path d="M348.705 133.645C348.189 133.645 347.673 133.903 347.415 134.161C347.156 134.419 346.898 134.935 346.898 135.451C346.898 135.967 347.156 136.225 347.415 136.741C347.673 136.999 348.189 137.257 348.705 137.257C349.221 137.257 349.479 136.999 349.996 136.741C350.254 136.483 350.512 135.967 350.512 135.451C350.512 134.935 350.254 134.677 349.996 134.161C349.479 133.645 348.963 133.645 348.705 133.645Z" fill="#1E3583"/>
<path d="M371.676 115.584C371.16 115.584 370.902 115.584 370.644 115.842C370.386 116.1 370.128 116.358 369.87 116.616C369.611 116.874 369.611 117.132 369.611 117.132H369.87C370.128 117.132 370.128 117.39 370.386 117.648C370.644 117.906 370.644 118.422 370.644 118.938V127.194C370.644 127.71 370.644 128.226 370.386 128.484C370.128 128.742 369.87 129 369.611 129H368.063H366.256C366.514 128.226 366.772 127.194 366.772 125.904C366.772 124.356 366.514 123.066 365.998 122.034C365.482 121.26 364.707 120.486 363.933 120.228C363.159 119.97 362.384 119.712 361.352 119.712C360.32 119.712 359.287 119.97 358.771 120.228C357.997 120.486 357.738 121.002 357.222 122.034C356.964 122.808 356.706 124.098 356.706 125.904V129H355.157H353.609C353.867 128.484 354.125 127.968 354.125 127.194C354.125 126.678 354.383 126.162 354.383 125.646C354.383 124.356 354.125 123.324 353.609 122.55C353.092 121.776 352.318 121.002 351.286 120.486C350.511 119.97 349.479 119.712 348.705 119.712H347.672H345.865C345.091 119.712 344.575 119.712 344.059 119.454C343.542 119.196 343.284 118.938 343.284 118.68C343.026 118.68 343.026 118.68 342.768 118.938C342.768 119.196 342.51 119.196 342.51 119.712C342.51 120.486 342.768 121.002 343.026 121.518C343.542 122.034 344.059 122.292 344.833 122.292H347.156C348.188 122.292 349.221 122.55 349.995 123.066C350.769 123.582 351.286 124.356 351.286 125.646C351.286 126.162 351.286 126.678 351.028 127.194C350.769 127.71 350.511 127.968 350.253 128.484C349.995 128.742 349.737 129 349.479 129H341.994H339.413C339.413 128.484 339.671 128.226 339.671 127.71V118.68C339.671 117.906 339.413 117.132 338.896 116.616C338.38 116.1 337.864 115.842 337.09 115.842C336.573 115.842 336.315 115.842 336.057 116.1C335.799 116.358 335.541 116.616 335.283 116.874C335.025 117.132 335.025 117.39 335.025 117.39H335.283C335.541 117.39 335.541 117.648 335.799 117.906C336.057 118.164 336.057 118.68 336.057 119.196V127.452C336.057 127.968 336.057 128.484 335.799 128.742C335.541 129 335.283 129.258 335.025 129.258H333.476H329.605H325.475C325.991 128.226 326.249 126.936 326.249 125.388C326.249 123.582 325.991 122.292 325.475 121.518C324.959 120.744 324.184 120.228 323.152 120.228C322.636 120.228 322.119 120.486 321.861 120.744C321.603 121.002 321.345 121.26 321.345 121.776C321.861 122.034 322.119 122.292 322.636 123.066C322.894 123.84 323.152 124.872 323.152 125.904C323.152 126.936 322.894 127.71 322.636 128.226C322.377 128.742 321.861 129.258 321.345 129.258H318.764C318.248 129.258 317.99 128.742 317.99 127.452V122.808C317.99 122.034 317.732 121.776 317.473 121.518C317.215 121.26 316.699 121.002 316.441 121.002C315.925 121.002 315.667 121.26 315.409 121.518C315.15 121.776 314.892 122.292 314.892 122.808V127.452C314.892 127.968 314.892 128.484 314.634 128.742C314.376 129.258 314.118 129.258 313.86 129.258H311.279C311.021 129.258 310.763 129 310.504 128.742C310.246 128.484 310.246 127.968 310.246 127.452V123.066C310.246 122.55 310.246 122.034 309.988 121.776C309.73 121.518 309.472 121.26 308.698 121.26C307.923 121.26 307.665 121.518 307.407 121.776C307.149 122.034 307.149 122.55 307.149 123.066V130.806C307.149 132.096 306.891 133.128 306.633 133.902C306.375 134.676 305.859 134.934 305.6 135.192C305.084 135.45 304.568 135.45 303.794 135.45C303.019 135.45 302.245 135.45 301.729 135.192C301.213 135.192 300.696 134.676 300.438 134.16C300.18 133.644 299.922 132.87 299.922 131.58C299.922 130.29 300.18 129.258 300.438 128.226C300.954 127.194 301.213 126.42 301.729 126.162C301.729 125.904 301.471 125.646 301.213 125.388C300.954 125.13 300.438 125.13 299.922 125.13C298.89 125.13 298.115 125.646 297.599 126.42C297.083 127.452 296.825 128.742 296.825 131.064C296.825 132.612 297.083 133.644 297.341 134.676C297.599 135.708 298.373 136.482 299.406 136.998C300.438 137.514 301.729 137.772 303.794 137.772C305.6 137.772 307.149 137.514 308.182 136.998C309.214 136.482 309.988 135.708 310.246 134.676C310.504 133.644 310.763 132.354 310.763 130.806C311.021 131.064 311.279 131.064 311.537 131.322C312.053 131.58 312.311 131.58 312.827 131.58H315.15C315.667 131.58 316.183 131.322 316.699 131.064C317.215 130.806 317.473 130.548 317.732 130.032C318.764 131.064 319.796 131.322 321.345 131.322H321.603C322.636 131.322 323.668 131.064 324.442 130.548C325.217 131.064 325.991 131.322 327.023 131.322H330.121H333.992H336.573C337.348 131.322 337.864 131.064 338.38 130.548C339.155 131.064 339.929 131.064 340.703 131.064H341.994H349.737C350.769 131.064 351.544 130.806 352.318 130.29C353.092 130.806 353.867 131.064 354.899 131.064H355.415H357.997C358.513 131.064 358.771 131.064 359.287 130.806C359.545 130.806 360.061 130.548 360.32 130.548C360.836 130.806 361.61 131.064 362.642 131.064C363.675 131.064 364.707 130.806 365.482 130.29C366.256 130.806 367.03 131.064 368.063 131.064H368.837H371.418C372.451 131.064 373.225 130.806 373.741 130.032C374.257 129.258 374.516 128.484 374.516 127.194V118.68C374.516 117.906 374.257 117.132 373.741 116.616C372.967 115.842 372.451 115.584 371.676 115.584ZM363.159 127.968C362.901 128.742 362.642 129 361.868 129H359.545V123.84C359.545 123.324 359.803 123.066 360.061 122.808C360.32 122.55 360.836 122.55 361.352 122.55C362.126 122.55 362.643 122.808 362.901 123.324C363.159 123.84 363.417 124.614 363.417 125.646C363.417 126.678 363.417 127.452 363.159 127.968Z" fill="#1E3583"/>
<path d="M380.453 116.617C379.937 116.101 379.421 115.843 378.646 115.843C378.13 115.843 377.872 115.843 377.614 116.101C377.356 116.359 377.098 116.617 376.839 116.875C376.581 117.133 376.581 117.391 376.581 117.391H376.839C377.098 117.391 377.098 117.649 377.356 117.907C377.614 118.165 377.614 118.681 377.614 119.197V130.033C377.614 130.549 377.614 130.807 377.872 131.323C378.13 131.581 378.646 131.839 379.162 131.839C379.679 131.839 380.195 131.581 380.453 131.323C380.711 131.065 380.711 130.549 380.711 130.291V118.681C381.227 117.649 380.969 117.133 380.453 116.617Z" fill="#1E3583"/>
<path d="M231.265 149.897C230.491 149.639 229.717 149.381 228.684 149.381C227.136 149.381 226.103 149.639 225.329 150.155C224.555 150.671 224.038 151.703 224.038 153.251V159.443H222.49H218.618H214.746C215.263 158.927 215.521 158.153 215.779 157.379C216.037 156.605 216.037 156.089 216.037 155.315C216.037 153.767 215.779 152.735 215.005 151.703C214.23 150.929 213.456 150.155 212.424 149.897C211.391 149.639 210.359 149.381 209.326 149.381C208.036 149.381 207.003 149.639 205.971 149.897C204.938 150.413 204.164 150.671 203.648 151.445C203.39 150.929 202.874 150.671 202.099 150.671C201.841 150.671 201.583 150.671 201.325 150.929C201.067 150.929 200.809 151.187 200.809 151.187C201.067 151.445 201.325 151.703 201.583 152.219C201.841 152.735 201.841 152.993 201.841 153.509V159.443H199.518H195.646H191.775H188.419H184.548H180.676H176.804H172.933H169.061H165.19H161.318H157.446H154.865H152.284V150.413C152.284 150.155 152.284 149.897 152.026 149.639C151.768 149.381 151.51 149.381 151.252 149.381C150.477 149.381 150.219 149.639 150.219 150.413V163.055C150.219 163.313 150.219 163.829 149.961 164.087C149.703 164.345 149.445 164.861 148.929 165.119C148.413 165.377 147.896 165.635 147.38 165.635C146.864 165.635 146.348 165.635 145.831 165.377C146.09 165.635 146.348 165.893 146.864 166.151C147.38 166.409 147.896 166.667 148.929 166.667C149.961 166.667 150.477 166.409 150.994 165.893C151.51 165.377 152.026 164.861 152.026 164.345C152.284 163.829 152.284 163.313 152.284 162.797V160.991H154.865H158.737H162.609H166.48H170.352H174.223H178.095H181.967H185.838H188.419H192.291H196.163H200.034H211.133C212.165 160.991 212.94 160.733 213.714 160.475C214.23 160.733 215.005 160.991 216.037 160.991H218.876H222.748H224.555C225.071 160.991 225.587 160.991 225.845 160.733C226.103 160.733 226.361 160.475 226.62 160.475C227.394 160.733 228.168 160.991 229.201 160.991C230.749 160.991 232.04 160.475 232.556 159.701C233.33 158.669 233.588 157.379 233.588 155.315C233.588 153.767 233.33 152.477 233.072 151.703C232.298 150.929 231.782 150.155 231.265 149.897ZM212.94 158.153C212.424 158.927 211.391 159.443 209.842 159.443H204.164V153.509C204.164 153.251 204.164 153.251 204.164 152.993C204.422 152.477 205.196 152.219 205.971 151.703C206.745 151.187 207.778 151.187 208.81 151.187C209.584 151.187 210.359 151.445 211.133 151.703C211.907 151.961 212.424 152.477 212.94 152.993C213.456 153.509 213.714 154.541 213.714 155.315C213.714 156.347 213.456 157.121 212.94 158.153ZM230.491 158.153C229.975 158.927 229.201 159.443 227.91 159.443H226.103V154.025C226.103 152.219 226.878 151.187 228.426 151.187C230.233 151.187 231.007 152.477 231.007 155.315C231.007 156.347 231.007 157.121 230.491 158.153Z" fill="#1E3583"/>
<path d="M2.83944 184.472C2.83944 183.44 2.58133 182.408 2.32322 181.892C2.06512 181.376 1.29079 181.118 0.516462 181.118H0.000244141V180.344H13.9381C15.7449 180.344 16.7773 181.118 16.7773 182.924V185.762H16.003C16.003 184.472 15.7449 183.44 14.9706 182.666C14.1962 182.15 13.1638 181.634 11.8733 181.634H6.71107V190.406H14.1962V191.954H6.71107V202.532H2.83944V184.472Z" fill="#1E3583"/>
<path d="M24.2623 201.5C22.7136 200.468 21.4231 199.178 20.3906 197.372C19.3582 195.566 19.1001 193.502 19.1001 191.438C19.1001 189.116 19.6163 187.31 20.3906 185.504C21.4231 183.698 22.4555 182.408 24.2623 181.376C25.8109 180.344 27.8758 179.828 29.9407 179.828C32.0055 179.828 34.0704 180.344 35.6191 181.376C37.1677 182.408 38.4583 183.698 39.4907 185.504C40.5231 187.31 40.7812 189.374 40.7812 191.438C40.7812 193.76 40.265 195.566 39.4907 197.372C38.4583 199.178 37.4258 200.468 35.6191 201.5C34.0704 202.532 32.0055 203.048 29.9407 203.048C27.8758 203.048 25.8109 202.532 24.2623 201.5ZM34.8447 198.92C36.1353 197.114 36.6515 194.534 36.6515 191.438C36.6515 188.084 36.1353 185.762 34.8447 183.956C33.5542 182.15 32.0055 181.118 29.9407 181.118C27.8758 181.118 26.069 182.15 25.0366 183.956C23.7461 185.504 23.2298 188.084 23.2298 191.18C23.2298 194.534 23.7461 196.856 25.0366 198.662C26.3271 200.468 27.8758 201.5 29.9407 201.5C32.0055 201.5 33.8123 200.726 34.8447 198.92Z" fill="#1E3583"/>
<path d="M48.7823 201.5C47.2336 200.468 45.9431 199.178 44.9107 197.372C43.8782 195.566 43.6201 193.502 43.6201 191.438C43.6201 189.116 44.1363 187.31 44.9107 185.504C45.9431 183.698 46.9755 182.408 48.7823 181.376C50.3309 180.344 52.3958 179.828 54.4607 179.828C56.5256 179.828 58.5904 180.344 60.1391 181.376C61.6877 182.408 62.9783 183.698 64.0107 185.504C65.0432 187.31 65.3013 189.374 65.3013 191.438C65.3013 193.76 64.785 195.566 64.0107 197.372C62.9783 199.178 61.9458 200.468 60.1391 201.5C58.5904 202.532 56.5256 203.048 54.4607 203.048C52.3958 203.048 50.3309 202.532 48.7823 201.5ZM59.3648 198.92C60.6553 197.114 61.1715 194.534 61.1715 191.438C61.1715 188.084 60.6553 185.762 59.3648 183.956C58.0742 182.15 56.5256 181.118 54.4607 181.118C52.3958 181.118 50.5891 182.15 49.5566 183.956C48.2661 185.762 47.7499 188.342 47.7499 191.438C47.7499 194.792 48.2661 197.114 49.5566 198.92C50.8472 200.726 52.3958 201.758 54.4607 201.758C56.5256 201.5 58.3323 200.726 59.3648 198.92Z" fill="#1E3583"/>
<path d="M69.9477 184.472C69.9477 183.44 69.6896 182.408 69.4315 181.892C69.1734 181.376 68.3991 181.118 67.6247 181.118H67.1085V180.344H76.1423C80.5302 180.344 84.1437 181.376 86.4667 183.182C88.7897 184.988 90.0802 187.826 90.0802 191.18C90.0802 193.502 89.564 195.308 88.5316 197.114C87.4991 198.92 86.2086 200.21 84.1437 200.984C82.3369 202.016 79.7559 202.274 77.1748 202.274H70.2058V184.472H69.9477ZM81.3045 199.952C82.5951 199.178 83.6275 197.888 84.4018 196.598C85.1761 195.05 85.4343 193.502 85.4343 191.438C85.4343 189.374 85.1761 187.826 84.4018 186.278C83.6275 184.73 82.5951 183.698 81.3045 182.924C80.014 182.15 78.4653 181.634 76.9167 181.634C76.1423 181.634 75.1099 181.634 73.8194 181.892V200.726C74.5937 200.984 75.1099 200.984 75.368 200.984C75.8842 200.984 76.4004 200.984 76.9167 200.984C78.4653 200.984 80.014 200.726 81.3045 199.952Z" fill="#1E3583"/>
<path d="M103.244 184.472C103.244 183.44 102.986 182.408 102.728 181.892C102.469 181.376 101.695 181.118 100.921 181.118H100.405V180.344H115.117C116.924 180.344 117.956 181.118 117.956 182.924V185.762H117.182C117.182 183.182 115.891 181.892 113.052 181.892H107.373V190.406H116.407V191.954H107.373V201.242H113.31C114.601 201.242 115.891 200.984 116.665 200.468C117.44 199.952 118.214 198.92 118.73 197.63L119.505 197.888L118.472 200.726C118.214 201.5 117.956 202.016 117.44 202.274C116.924 202.532 116.407 202.79 115.633 202.79H103.244V184.472Z" fill="#1E3583"/>
<path d="M129.313 191.696L124.409 184.472C122.86 182.15 121.311 180.86 119.505 180.86V180.086H123.376C124.409 180.086 125.441 180.344 126.215 181.118C126.99 181.892 127.764 182.666 128.538 183.698L131.636 188.342L138.346 179.828H140.411L132.668 189.632L138.088 197.63C138.863 198.662 139.379 199.436 140.411 200.21C141.186 200.984 141.96 201.242 142.992 201.242V202.016H139.379C137.572 202.016 135.765 200.726 134.217 198.404L130.603 192.728L123.376 202.016H121.311L129.313 191.696Z" fill="#1E3583"/>
<path d="M145.573 184.472C145.573 183.44 145.315 182.408 145.057 181.892C144.799 181.376 144.024 181.118 143.25 181.118H142.734V180.344H151.768C154.091 180.344 156.155 180.86 157.962 181.634C159.769 182.666 160.801 184.214 160.801 187.052C160.801 188.858 160.285 190.148 159.253 191.18C158.22 192.212 157.188 192.728 156.155 192.986C154.865 193.244 153.832 193.502 152.8 193.502H149.445V202.532H145.573V184.472ZM151.768 191.954C153.058 191.954 154.091 191.438 155.123 190.664C156.155 189.89 156.672 188.6 156.672 186.536C156.672 184.73 156.155 183.44 155.123 182.408C154.091 181.634 153.058 181.118 151.768 181.118C151.251 181.118 150.477 181.118 149.445 181.376V191.696H151.768V191.954Z" fill="#1E3583"/>
<path d="M168.029 201.5C166.481 200.468 165.19 199.178 164.158 197.372C163.125 195.566 162.867 193.502 162.867 191.438C162.867 189.116 163.384 187.31 164.158 185.504C165.19 183.698 166.223 182.408 168.029 181.376C169.578 180.344 171.643 179.828 173.708 179.828C175.773 179.828 177.838 180.344 179.386 181.376C180.935 182.408 182.225 183.698 183.258 185.504C184.29 187.31 184.548 189.374 184.548 191.438C184.548 193.76 184.032 195.566 183.258 197.372C182.225 199.178 181.193 200.468 179.386 201.5C177.838 202.532 175.773 203.048 173.708 203.048C171.643 203.048 169.578 202.532 168.029 201.5ZM178.612 198.92C179.902 197.114 180.419 194.534 180.419 191.438C180.419 188.084 179.902 185.762 178.612 183.956C177.321 182.15 175.773 181.118 173.708 181.118C171.643 181.118 169.836 182.15 168.804 183.956C167.513 185.762 166.997 188.342 166.997 191.438C166.997 194.792 167.513 197.114 168.804 198.92C170.094 200.726 171.643 201.758 173.708 201.758C175.773 201.5 177.58 200.726 178.612 198.92Z" fill="#1E3583"/>
<path d="M201.325 201.5C200.293 200.726 199.26 199.436 198.228 197.63L194.872 191.954H193.065V202.016H189.194V184.214C189.194 183.182 188.936 182.15 188.678 181.634C188.419 181.118 187.645 180.86 186.871 180.86H186.355V180.086H195.647C197.97 180.086 200.034 180.602 201.841 181.376C203.648 182.15 204.68 183.698 204.68 186.278C204.68 188.084 204.164 189.116 203.132 190.148C202.099 190.922 200.809 191.696 199.26 191.954L202.874 197.888C203.648 199.178 204.422 200.21 205.197 200.726C205.971 201.242 206.487 201.5 207.261 201.758V202.532C207.003 202.532 206.745 202.79 206.229 202.79C205.713 202.79 205.455 202.79 204.938 202.79C203.39 202.79 202.357 202.274 201.325 201.5ZM195.388 190.922C196.163 190.922 196.937 190.664 197.711 190.406C198.486 190.148 199.002 189.632 199.518 188.858C200.034 188.084 200.293 187.31 200.293 186.278C200.293 185.246 200.034 184.214 199.518 183.698C199.002 182.924 198.486 182.408 197.711 182.15C196.937 181.892 196.163 181.634 195.388 181.634C194.872 181.634 194.098 181.634 193.065 181.892V190.922H195.388Z" fill="#1E3583"/>
<path d="M214.489 181.634H211.907C210.617 181.634 209.585 181.892 208.81 182.666C208.036 183.182 207.778 184.214 207.778 185.762H207.003V182.924C207.003 181.118 208.036 180.344 209.843 180.344H225.845V181.892H218.618V202.532H214.747V181.634H214.489Z" fill="#1E3583"/>
<path d="M241.074 201.5C239.526 200.468 238.235 199.178 237.203 197.372C236.428 195.566 235.912 193.76 235.912 191.438C235.912 189.116 236.428 187.31 237.461 185.246C238.493 183.44 239.784 181.892 241.332 180.86C242.881 179.828 244.946 179.312 246.753 179.312C248.559 179.312 250.366 179.57 251.657 180.086C252.947 180.602 253.98 181.118 254.754 182.15C255.012 182.666 255.27 183.182 255.528 183.956C255.528 184.73 255.786 185.762 255.786 187.052H255.012C254.238 182.924 251.915 180.602 248.043 180.602C245.72 180.602 243.655 181.376 242.365 183.182C241.074 184.73 240.3 187.568 240.3 191.438C240.3 193.244 240.558 194.792 241.074 196.34C241.59 197.888 242.365 199.178 243.655 199.952C244.946 200.984 246.236 201.242 248.043 201.242C249.592 201.242 251.14 200.726 252.431 199.952C253.721 199.178 254.754 197.888 255.528 196.34L256.561 197.114C255.528 198.92 254.238 200.468 252.689 201.242C251.14 202.016 249.334 202.532 247.011 202.532C244.688 203.048 242.623 202.532 241.074 201.5Z" fill="#1E3583"/>
<path d="M264.045 201.5C262.497 200.468 261.206 199.178 260.174 197.372C259.141 195.566 258.883 193.502 258.883 191.438C258.883 189.116 259.399 187.31 260.174 185.504C261.206 183.698 262.238 182.408 264.045 181.376C265.594 180.344 267.659 179.828 269.724 179.828C271.788 179.828 273.853 180.344 275.402 181.376C276.951 182.408 278.241 183.698 279.274 185.504C280.306 187.31 280.564 189.374 280.564 191.438C280.564 193.76 280.048 195.566 279.274 197.372C278.241 199.178 277.209 200.468 275.402 201.5C273.853 202.532 271.788 203.048 269.724 203.048C267.401 203.048 265.594 202.532 264.045 201.5ZM274.628 198.92C275.918 197.114 276.434 194.534 276.434 191.438C276.434 188.084 275.918 185.762 274.628 183.956C273.337 182.15 271.788 181.118 269.724 181.118C267.659 181.118 265.852 182.15 264.82 183.956C263.529 185.762 263.013 188.342 263.013 191.438C263.013 194.792 263.529 197.114 264.82 198.92C266.11 200.726 267.659 201.758 269.724 201.758C271.788 201.5 273.337 200.726 274.628 198.92Z" fill="#1E3583"/>
<path d="M287.276 200.21C285.727 198.662 285.211 196.082 285.211 192.728V184.472C285.211 183.44 284.953 182.666 284.694 181.892C284.436 181.376 283.92 181.118 282.888 181.118H282.371V180.344H285.727C286.501 180.344 287.276 180.344 287.534 180.602C288.05 180.86 288.308 181.376 288.566 181.892C288.824 182.408 288.824 183.44 288.824 184.472V193.76C288.824 198.662 290.631 201.242 294.503 201.242C296.826 201.242 298.632 200.468 299.665 199.178C300.697 197.888 301.213 195.566 301.213 192.728V180.086H302.762V192.728C302.762 195.05 302.504 196.856 301.988 198.146C301.472 199.694 300.439 200.726 299.149 201.5C297.858 202.274 296.051 202.532 293.986 202.532C290.889 202.79 288.566 201.758 287.276 200.21Z" fill="#1E3583"/>
<path d="M310.247 185.246V202.274H308.698V184.214C308.698 183.182 308.44 182.408 307.924 181.892C307.407 181.376 306.633 181.118 305.601 181.118H305.343V180.344H307.665C308.956 180.344 309.73 180.602 310.505 180.86C311.279 181.118 312.053 181.634 312.57 182.408L324.443 196.34V180.344H325.991V202.79H324.701L310.247 185.246Z" fill="#1E3583"/>
<path d="M335.026 201.5C333.477 200.468 332.187 199.178 331.154 197.372C330.38 195.566 329.864 193.76 329.864 191.438C329.864 189.116 330.38 187.31 331.412 185.246C332.445 183.44 333.735 181.892 335.284 180.86C336.833 179.828 338.897 179.312 340.704 179.312C342.511 179.312 344.318 179.57 345.608 180.086C346.899 180.602 347.931 181.118 348.706 182.15C348.964 182.666 349.222 183.182 349.48 183.956C349.48 184.73 349.738 185.762 349.738 187.052H348.964C348.189 182.924 345.866 180.602 341.995 180.602C339.672 180.602 337.607 181.376 336.316 183.182C335.026 184.73 334.251 187.568 334.251 191.438C334.251 193.244 334.51 194.792 335.026 196.34C335.542 197.888 336.316 199.178 337.607 199.952C338.897 200.984 340.188 201.242 341.995 201.242C343.543 201.242 345.092 200.726 346.383 199.952C347.673 199.178 348.706 197.888 349.48 196.34L350.512 197.114C349.48 198.92 348.189 200.468 346.641 201.242C345.092 202.016 343.285 202.532 340.962 202.532C338.639 203.048 336.833 202.532 335.026 201.5Z" fill="#1E3583"/>
<path d="M355.416 202.016C354.9 201.758 354.642 201.242 354.384 200.726C354.126 200.21 354.125 199.178 354.125 198.146V180.086H357.997V198.146C357.997 199.178 358.255 200.21 358.513 200.726C358.771 201.242 359.546 201.5 360.32 201.5H360.836V202.274H357.223C356.448 202.274 355.932 202.274 355.416 202.016Z" fill="#1E3583"/>
<path d="M364.966 184.472C364.966 183.44 364.708 182.408 364.45 181.892C364.192 181.376 363.417 181.118 362.643 181.118H362.127V180.344H365.74C366.515 180.344 367.289 180.344 367.547 180.602C368.063 180.86 368.322 181.376 368.58 181.892C368.838 182.408 368.838 183.44 368.838 184.472V200.984H380.711V202.532H364.966V184.472Z" fill="#1E3583"/>
<path d="M152.285 221.107C152.285 220.333 152.285 219.559 152.026 219.301C151.768 218.785 151.252 218.785 150.478 218.785H149.962V218.269H161.318C162.867 218.269 163.641 219.043 163.641 220.333V221.881H163.125C163.125 220.075 162.093 219.043 159.77 219.043H154.866V225.493H162.093V226.525H154.866V233.491H159.512C160.802 233.491 161.576 233.233 162.351 232.975C163.125 232.459 163.641 231.943 163.899 230.911H164.416L163.383 233.233C163.125 234.007 162.351 234.523 161.318 234.523H152.285V221.107Z" fill="#1E3583"/>
<path d="M170.611 233.749C169.32 232.975 168.288 231.943 167.514 230.653C166.739 229.363 166.481 227.815 166.481 226.267C166.481 224.719 166.739 223.429 167.514 222.139C168.288 220.849 169.062 219.817 170.353 219.043C171.643 218.269 172.934 218.011 174.741 218.011C176.289 218.011 177.58 218.269 178.612 218.527C179.645 218.785 180.419 219.301 180.935 219.817C181.193 220.075 181.451 220.591 181.451 221.107C181.451 221.623 181.451 222.397 181.451 223.171H180.935C180.677 221.623 179.903 220.591 179.128 219.817C178.096 219.043 176.805 218.785 175.257 218.785C173.708 218.785 172.676 219.043 171.643 219.817C170.611 220.591 170.095 221.365 169.578 222.655C169.062 223.687 168.804 224.977 168.804 226.267C168.804 229.105 169.32 230.911 170.611 232.201C171.901 233.491 173.192 234.007 175.257 234.007C176.031 234.007 176.805 234.007 177.58 233.749C178.096 233.491 178.87 233.491 179.387 233.233V228.847C179.387 228.331 179.387 227.815 179.645 227.299C179.903 226.783 180.161 226.525 180.935 226.267C181.71 226.009 182.484 225.751 183.774 225.751V226.267C183 226.267 182.484 226.525 182.226 226.783C181.968 227.041 181.71 227.815 181.71 228.589V233.233C180.677 233.749 179.645 234.265 178.612 234.523C177.838 234.781 176.547 234.781 175.257 234.781C173.708 234.781 172.159 234.523 170.611 233.749Z" fill="#1E3583"/>
<path d="M191.517 227.557L187.129 221.365C186.613 220.849 186.355 220.333 185.839 219.817C185.581 219.559 185.064 219.301 184.806 219.043C184.29 218.785 183.774 218.785 183.258 218.527V218.011H185.581C186.355 218.011 187.129 218.269 187.904 218.785C188.42 219.301 189.194 219.817 189.71 220.849L193.582 226.267L199.002 218.011H200.293L194.098 227.299V234.265H191.775V227.557H191.517Z" fill="#1E3583"/>
<path d="M203.391 221.107C203.391 220.333 203.391 219.559 203.133 219.301C202.874 218.785 202.358 218.785 201.584 218.785H201.068V218.269H208.037C209.843 218.269 211.392 218.527 212.683 219.301C213.973 220.075 214.748 221.365 214.748 223.171C214.748 224.461 214.489 225.493 213.715 226.009C212.941 226.783 212.166 227.041 211.392 227.299C210.618 227.557 209.843 227.557 209.069 227.557H206.23V234.265H203.907V221.107H203.391ZM207.779 226.783C208.295 226.783 209.069 226.525 209.585 226.267C210.102 226.009 210.876 225.493 211.134 224.977C211.65 224.461 211.908 223.687 211.908 222.655C211.908 221.881 211.65 221.107 211.134 220.333C210.618 219.817 210.102 219.301 209.585 219.043C209.069 218.785 208.295 218.527 207.779 218.527C207.262 218.527 206.488 218.527 205.714 218.785V226.267H207.779V226.783Z" fill="#1E3583"/>
<path d="M221.974 219.043H219.651C217.328 219.043 216.295 220.075 216.295 221.881H215.779V220.075C215.779 218.785 216.554 218.011 218.102 218.011H230.491V219.043H224.555V234.265H221.974V219.043Z" fill="#1E3583"/>
<path d="M380.711 229.105H243.397V231.427H380.711V229.105Z" fill="#1E3583"/>
<path d="M137.314 229.105H0.000244141V231.427H137.314V229.105Z" fill="#1E3583"/>
<path d="M147.38 36.6361C147.38 36.6361 146.348 36.1201 145.832 34.8301C145.315 33.2821 145.316 30.1861 148.155 26.0581C151.51 21.4141 155.382 18.0601 155.382 18.0601C155.382 18.0601 155.64 23.4781 153.575 30.9601C152.026 37.4101 148.671 37.1521 147.38 36.6361Z" fill="#1E3583"/>
<path d="M152.026 39.4747C152.026 39.4747 151.51 38.4427 152.026 37.1527C152.542 35.6047 154.607 33.0247 159.253 31.7347C164.674 30.1867 169.836 29.9287 169.836 29.9287C169.836 29.9287 166.738 34.3147 160.286 38.9587C155.123 42.8287 152.542 40.5067 152.026 39.4747Z" fill="#1E3583"/>
<path d="M162.867 27.3487C162.867 27.3487 162.351 26.5747 162.609 25.5427C163.125 24.2527 164.674 22.4467 168.288 21.4147C172.675 20.1247 176.547 19.8667 176.547 19.8667C176.547 19.8667 174.224 23.2207 169.062 27.0907C165.19 29.9287 163.383 28.1227 162.867 27.3487Z" fill="#1E3583"/>
<path d="M159.254 25.0256C159.254 25.0256 158.48 24.5096 157.963 23.7356C157.447 22.4456 157.447 19.8656 159.77 16.7696C162.351 13.1576 165.449 10.5776 165.449 10.5776C165.449 10.5776 165.707 14.7056 163.9 20.6396C162.609 25.5416 160.028 25.2836 159.254 25.0256Z" fill="#1E3583"/>
<path d="M169.062 17.8021C169.062 17.8021 168.029 16.7701 168.029 15.4801C168.029 13.4161 169.062 10.0621 173.966 6.70811C179.386 3.09611 184.806 0.516113 184.806 0.516113C184.806 0.516113 183 6.45011 177.837 14.1901C173.708 20.3821 170.352 18.8341 169.062 17.8021Z" fill="#1E3583"/>
<path d="M133.959 50.3099C133.959 50.3099 132.926 49.7939 132.152 48.2459C131.378 46.4399 131.378 43.0859 134.991 37.9259C138.863 32.2499 143.509 28.3799 143.509 28.3799C143.509 28.3799 144.025 33.7979 141.702 42.8279C139.895 49.7939 135.766 50.8259 133.959 50.3099Z" fill="#1E3583"/>
<path d="M136.798 51.0845C136.798 51.0845 119.247 72.2405 117.44 97.5245H120.796C120.796 97.5245 121.054 77.1425 136.798 51.0845Z" fill="#1E3583"/>
<path d="M112.019 97.5248C112.535 88.4948 115.117 79.9808 118.214 72.7568L94.2097 97.5248H112.019Z" fill="#1E3583"/>
<path d="M252.946 97.266C252.688 97.524 252.43 97.524 252.172 97.782H286.759L257.592 68.886C257.592 69.144 257.592 69.144 257.592 69.402C257.851 70.692 257.851 72.24 257.851 74.562H256.302C255.528 71.208 254.237 68.886 252.43 67.08C250.623 65.274 248.301 64.5 245.203 64.5C241.59 64.5 238.75 65.79 236.427 68.37C234.363 70.95 233.33 75.336 233.33 81.27C233.33 85.914 234.363 89.526 236.169 92.622C238.234 95.718 241.073 97.008 245.203 97.008C247.784 97.008 250.107 96.234 252.172 94.944C254.237 93.654 256.044 91.848 257.334 89.268L259.141 90.816C257.592 93.654 255.528 95.718 252.946 97.266Z" fill="#1E3583"/>
<path d="M185.838 62.952C188.936 62.952 190.484 64.5 190.484 67.338V71.982H188.936C188.936 69.66 188.419 68.112 187.129 67.08C186.096 66.048 184.29 65.532 181.967 65.532H174.481V79.206H186.354V81.528H174.481V97.782H196.679V69.918C196.679 68.112 196.421 66.822 195.904 65.79C195.388 65.016 194.356 64.5 192.807 64.5H192.291V62.952H216.037C219.134 62.952 220.683 64.5 220.683 67.338V71.982H219.134C219.134 69.66 218.618 68.112 217.327 67.08C216.295 66.048 214.488 65.532 212.165 65.532H203.39V78.948H217.327V81.27H203.39V95.976H212.682C214.746 95.976 216.553 95.46 217.844 94.686C219.134 93.654 220.425 92.106 221.199 90.042L222.748 90.558L221.199 94.686C220.683 95.976 220.167 97.008 219.65 97.524C219.392 97.782 219.392 97.782 219.134 97.782H235.653C235.137 97.524 234.621 97.266 234.105 97.008C231.523 95.46 229.459 93.138 227.91 90.558C226.619 87.72 225.845 84.624 225.845 81.27C225.845 77.658 226.619 74.562 228.168 71.466C229.717 68.628 231.782 66.306 234.621 64.5C237.46 62.694 240.299 61.92 243.655 61.92C246.752 61.92 249.591 62.436 251.656 63.21C251.914 63.21 251.914 63.21 251.914 63.468L188.161 0L166.738 62.952H185.838Z" fill="#1E3583"/>
<path d="M167.513 69.9181C167.513 68.1121 167.255 66.8221 166.738 65.7901C166.48 65.5321 166.222 65.0161 165.706 65.0161L154.607 97.7821H167.513V69.9181Z" fill="#1E3583"/>
</svg>
