<svg width="778" height="655" viewBox="0 0 778 655" fill="none" xmlns="http://www.w3.org/2000/svg">
<g clip-path="url(#clip0_74_1930)">
<path d="M493.381 451.849C501.154 407.873 508.487 363.75 516.919 319.884C524.802 278.691 534.408 237.314 551.823 198.94C545.15 196.121 538.477 193.338 531.805 190.518C506.947 291.506 488.322 394.618 491.878 499.011C492.281 510.692 511.64 514.647 513.4 501.904C530.411 378.983 558.092 256.098 612.024 143.649C605.352 140.83 598.679 138.047 592.006 135.228C545.993 267.193 512.666 403.552 500.457 542.988C499.394 555.144 520.036 558.11 521.979 545.88C540.054 431.418 569.055 318.712 609.421 209.998C620.97 178.947 633.436 148.226 646.781 117.908C640.109 115.088 633.436 112.306 626.763 109.486C588.926 234.055 555.159 360.199 539.651 489.674C535.141 527.426 531.181 565.653 532.648 603.698C533.198 618.161 552.74 617.282 554.536 603.698C571.255 477.042 602.712 352.253 648.835 233.067C661.777 199.599 675.966 166.608 691.254 134.129C684.582 131.31 677.909 128.527 671.236 125.707C666.323 156.502 655.544 185.722 646.195 215.344C637.029 244.271 628.926 273.491 621.814 303.004C607.331 363.128 597.066 424.277 590.76 485.793C587.093 521.457 584.857 557.232 583.867 593.079C583.537 605.089 603.665 608.385 605.388 595.972C619.797 490.919 643.445 384.951 692.831 290.298C706.726 263.641 722.675 238.12 740.603 213.953C748.999 202.638 730.008 191.727 721.685 202.931C657.341 289.639 621.117 393.373 599.669 498.279C593.473 528.707 588.45 559.355 584.233 590.113C591.42 591.065 598.569 592.054 605.755 593.006C609.165 470.268 628.12 348.188 664.27 230.76C674.389 197.878 686.891 165.619 692.318 131.493C694.077 120.361 678.055 110.841 672.299 123.071C616.974 240.756 576.204 364.959 550.833 492.457C543.5 529.33 537.524 566.422 532.611 603.661C539.907 603.661 547.203 603.661 554.499 603.661C552.006 538.667 562.345 472.135 573.748 408.313C585.04 345.003 600.145 282.425 617.194 220.434C626.873 185.209 637.212 150.167 647.845 115.198C651.364 103.628 632.923 95.2424 627.826 106.777C580.457 214.136 544.014 326.072 519.266 440.791C512.19 473.673 506.067 506.737 500.824 539.949C508.01 540.901 515.159 541.889 522.345 542.841C534.371 405.42 567.735 270.965 613.124 140.903C617.157 129.332 598.496 121.277 593.106 132.481C538.294 246.761 509.587 371 492.281 495.972C499.467 496.961 506.617 497.913 513.803 498.865C510.283 396.302 528.505 295.388 552.923 196.194C555.746 184.696 538.221 176.055 532.905 187.772C515.123 226.988 504.6 268.548 496.424 310.657C487.698 355.622 480.256 400.806 472.263 445.918C469.843 459.795 490.961 465.69 493.381 451.849Z" fill="#E94543"/>
<path d="M109.258 187.735C78.0935 294.728 66.2145 406.664 71.5308 517.868C72.044 528.524 86.1962 532.954 91.9523 523.398C107.094 498.205 109.807 468.29 114.757 439.949C120.257 408.532 126.343 377.261 133.015 346.064C146.251 284.219 161.283 222.484 179.798 161.994C189.954 128.929 201.833 96.4137 217.855 65.6925C211.035 63.8617 204.253 61.9943 197.433 60.1635C196.113 79.0941 191.09 97.3657 186.214 115.674C181.265 134.165 176.352 152.693 171.549 171.221C161.87 208.423 152.594 245.699 144.125 283.194C127.259 358.001 113.84 433.687 107.278 510.142C103.465 554.705 102.108 599.413 103.538 644.122C103.868 654.081 119.193 660.123 123.96 649.651C139.762 614.792 140.092 574.953 144.454 537.495C149.111 497.656 154.61 457.891 161.173 418.308C174.189 339.876 191.274 262.066 214.115 185.868C226.911 143.173 241.54 101.027 258.148 59.6508C251.109 57.7102 244.069 55.7695 237.03 53.8288C201.32 185.501 166.269 318.309 156.553 454.925C153.767 494.251 153.18 533.723 154.94 573.086C155.417 583.924 169.459 587.952 175.362 578.615C189.514 556.096 193.62 529.952 196.92 504.064C200.733 474.075 204.949 444.196 210.376 414.427C220.861 356.537 234.72 299.159 252.429 243.062C262.401 211.499 274.06 180.558 289.495 151.228C282.676 149.398 275.893 147.567 269.074 145.699C269.844 179.496 260.238 212.671 253.382 245.552C246.416 278.873 239.853 312.267 234.28 345.845C222.914 414.354 215.838 483.632 217.525 553.167C217.818 565.323 235.747 568.216 239.046 556.059C268.707 446.686 275.893 328.855 329.605 227.207C322.823 225.377 316.003 223.509 309.184 221.678C297.561 309.448 285.939 397.217 274.317 484.987C273.547 490.882 279.926 495.862 285.279 495.935C291.842 496.008 295.472 490.846 296.242 484.987C307.864 397.217 319.486 309.448 331.108 221.678C332.575 210.693 315.49 207.105 310.687 216.149C255.948 319.774 248.139 438.814 217.928 550.237C225.114 551.226 232.264 552.178 239.45 553.13C237.763 483.229 244.876 413.622 256.572 344.783C262.254 311.242 268.927 277.885 275.93 244.564C282.786 212.012 291.732 179.167 290.999 145.663C290.779 135.264 275.82 130.211 270.577 140.134C243.666 191.36 226.947 247.42 212.465 303.223C197.543 360.638 186.288 418.931 178.405 477.7C174.335 508.019 173.199 540.973 156.443 567.594C163.263 569.424 170.046 571.255 176.865 573.123C170.669 436.617 195.49 302.161 228.817 170.379C238.166 133.36 248.139 96.4869 258.111 59.6508C261.888 45.7366 242.126 41.0863 236.993 53.8288C178.405 199.782 145.554 354.523 125.866 510.179C123.08 532.259 120.587 554.375 118.277 576.528C116.077 597.473 113.877 619.149 105.078 638.556C111.861 640.387 118.68 642.218 125.499 644.085C120.477 488.246 151.787 335.336 190.577 185.208C195.93 164.484 201.393 143.795 206.929 123.107C212.465 102.346 217.892 81.6939 219.395 60.1635C220.165 49.3616 203.886 45.224 198.973 54.6344C170.706 108.863 154.28 168.218 138.845 227.098C122.566 289.126 108.671 351.813 97.1219 414.903C94.0422 431.82 91.2924 448.773 88.286 465.727C85.3529 481.984 81.6865 498.059 73.1073 512.376C79.9267 514.207 86.7095 516.074 93.5289 517.905C88.286 408.495 99.7983 298.829 130.449 193.594C134.335 180.009 113.181 174.224 109.258 187.735Z" fill="#2D4E9D"/>
<path d="M347.827 132.334C336.021 191.909 324.252 251.557 315.6 311.682C311.383 340.975 307.864 370.341 305.444 399.817C303.171 427.719 300.568 455.877 314.023 481.545C316.846 486.964 323.959 488.099 329.018 485.463C341.081 479.238 347.643 467.777 350.503 454.852C353.84 439.802 355.05 424.094 357.066 408.825C361.319 376.383 365.205 343.904 369.642 311.462C378.551 246.687 389.55 181.876 409.421 119.445C420.787 83.7079 435.233 49.1054 453.271 16.1872C446.598 13.3678 439.926 10.5849 433.253 7.76545C387.35 156.574 343.354 308.679 339.907 465.47C338.918 509.593 341.521 553.57 347.533 597.29C349.22 609.666 369.165 606.444 369.055 594.397C367.588 452.325 386.14 310.51 424.857 173.784C435.783 135.227 448.285 97.1827 462.217 59.6143C455.178 57.6736 448.138 55.7329 441.099 53.7923C415.068 172.722 379.174 290.737 373.968 413.146C372.538 446.54 371.768 481.508 380.531 514.06C382.914 522.995 395.966 524.972 400.549 516.66C414.004 492.2 417.121 464.738 421.777 437.642C426.983 407.324 432.85 377.152 439.229 347.09C452.171 286.343 467.203 226.036 482.969 165.985C491.841 132.188 500.97 98.5009 510.063 64.7772C513.766 51.0827 493.454 45.7367 488.945 58.9552C450.338 172.429 427.533 291.103 421.447 410.802C419.724 444.819 419.357 478.835 420.274 512.889C420.641 527.389 440.402 526.473 442.162 512.889C456.607 402.271 454.334 284.073 512.739 184.989C506.067 184.11 499.394 183.231 492.721 182.389C497.891 196.56 495.361 211.206 493.638 225.816C492.354 236.691 490.961 247.566 489.568 258.405C486.305 283.45 482.895 308.459 479.632 333.505C472.593 387.185 465.847 441.011 462.364 495.093C460.677 521.494 459.761 547.967 461.007 574.404C461.667 588.428 483.592 588.502 482.895 574.404C480.512 524.386 485.168 474.039 490.485 424.35C496.204 370.964 503.72 317.833 510.65 264.593C512.299 252.033 513.913 239.511 515.379 226.915C517.396 209.998 519.815 193.008 513.839 176.567C510.723 167.999 498.881 165.399 493.821 173.967C433.289 276.64 435.233 398.316 420.274 512.925C427.57 512.925 434.866 512.925 442.162 512.925C439.046 394.837 451.805 276.713 481.025 162.213C489.421 129.368 499.137 96.8898 510.063 64.8138C503.023 62.8731 495.984 60.9325 488.945 58.9918C457.304 176.018 425.59 293.264 403.995 412.67C398.459 443.354 396.919 477.883 381.594 505.675C388.267 506.554 394.939 507.433 401.612 508.275C394.096 480.337 394.646 450.568 395.526 421.824C396.443 391.762 399.266 361.736 403.555 331.93C411.951 273.71 425.333 216.332 439.009 159.138C446.928 126 454.921 92.8986 462.217 59.6143C465.26 45.7 445.975 40.6836 441.099 53.7923C391.2 188.174 360.732 329.367 350.723 472.354C347.863 512.962 346.727 553.679 347.167 594.397C354.353 593.445 361.502 592.456 368.688 591.504C347.68 438.374 376.828 284.585 417.781 137.241C429.293 95.8279 441.759 54.7077 454.444 13.6241C458.074 1.8336 440.402 -5.70938 434.426 5.20231C372.245 118.567 355.709 247.603 339.724 373.893C337.414 391.981 335.141 410.106 332.685 428.158C330.925 441.084 331.292 459.758 318.056 466.606C323.042 467.924 328.028 469.205 333.051 470.524C320.769 447.089 325.865 417.979 328.102 392.714C330.632 364.006 334.188 335.409 338.441 306.921C346.91 250.386 358.019 194.253 369.128 138.193C371.658 124.389 350.54 118.493 347.827 132.334Z" fill="#E5E5E6"/>
<path d="M514.536 398.975C527.515 330.32 547.496 262.945 575.031 198.647C568.358 195.827 561.685 193.045 555.013 190.225C532.464 250.093 525.132 314.062 517.616 377.152C509.476 445.258 501.337 513.402 493.198 581.508C500.494 581.508 507.79 581.508 515.086 581.508C527.332 457.964 560.072 336.178 613.821 224.095C628.853 192.788 645.461 162.287 663.537 132.628C657.23 128.966 650.924 125.268 644.618 121.606C595.416 234.751 562.529 354.193 546.03 476.419C541.227 511.973 537.781 547.711 535.654 583.522C534.811 597.876 555.856 597.107 557.542 583.522C573.491 455.914 606.781 328.855 671.786 216.955C665.113 214.136 658.44 211.353 651.768 208.533C623.977 303.773 600.512 400.184 581.3 497.51C578.587 511.168 598.532 517.027 602.418 503.332C624.563 425.083 646.855 346.211 684.398 273.674C690.851 261.188 671.969 250.13 665.48 262.616C627.056 336.874 603.995 417.43 581.3 497.51C588.34 499.451 595.379 501.391 602.418 503.332C621.593 406.006 645.058 309.558 672.886 214.355C676.369 202.418 659.1 195.205 652.867 205.934C585.81 321.349 552.116 451.996 535.654 583.522C542.95 583.522 550.246 583.522 557.542 583.522C564.765 462.431 587.496 342.44 626.726 227.611C637.689 195.498 649.934 163.788 663.463 132.664C668.926 120.068 652.098 109.266 644.545 121.643C578.88 229.368 533.161 348.738 508.963 472.464C501.924 508.532 496.681 544.965 493.088 581.545C491.695 595.642 513.363 595.276 514.976 581.545C522.969 514.647 530.961 447.712 538.954 380.814C546.397 318.383 553.693 255.293 576.021 196.084C580.347 184.623 560.879 176.238 556.002 187.662C527.662 253.755 506.653 322.52 493.308 393.19C490.815 406.921 511.933 412.816 514.536 398.975Z" fill="#E41F1A"/>
<path d="M326.159 555.767C338.881 428.195 364.985 302.088 403.775 179.863C414.738 145.297 426.763 111.061 439.706 77.1538C432.666 75.2131 425.627 73.2725 418.587 71.3318C377.488 209.632 360.219 353.461 348.56 496.888C345.26 537.568 342.401 578.286 339.541 619.04C338.698 631.197 358.753 634.089 361.062 621.933C385.59 491.359 410.375 359.979 455.911 234.751C469.036 198.684 483.922 163.312 500.824 128.82C494.151 126 487.478 123.217 480.805 120.398C462.95 185.465 441.649 249.544 424.71 314.867C407.808 380.008 396.956 446.32 394.756 513.621C394.353 525.815 413.528 528.671 416.278 516.514C417.268 512.157 417.048 515.306 415.434 515.525C414.115 515.708 417.524 515.745 417.781 515.855C420.201 517.027 425.187 517.136 428.23 517.063C438.459 516.807 445.315 509.886 447.478 500.22C450.558 486.525 429.44 480.667 426.36 494.398C425.37 498.755 425.59 495.606 427.203 495.386C428.523 495.203 425.114 495.167 424.857 495.057C422.437 493.885 417.451 493.775 414.408 493.848C404.179 494.105 397.359 501.025 395.16 510.692C402.346 511.681 409.495 512.633 416.681 513.585C418.881 447.126 429.807 381.985 446.635 317.724C463.464 253.425 484.362 190.262 501.96 126.147C505.15 114.539 487.515 106.3 481.942 117.725C422.181 239.694 388.34 371.55 361.576 504.101C354.06 541.377 347.02 578.725 340.018 616.074C347.204 617.026 354.353 618.015 361.539 618.967C371.512 477.188 381.411 334.86 410.192 195.388C418.404 155.55 428.193 116.077 439.779 77.1172C443.849 63.386 423.574 58.4062 418.661 71.2952C372.245 192.679 338.404 318.676 318.203 446.979C312.52 483.12 307.864 519.407 304.234 555.803C302.841 569.754 324.766 569.681 326.159 555.767Z" fill="#EFEEEE"/>
<path d="M88.2491 218.603C73.1804 317.284 65.5911 416.917 65.3344 516.734C65.2977 529.806 82.5296 530.611 86.8559 519.626C100.238 485.61 108.377 450.019 116.297 414.428C124.179 379.02 132.649 343.795 143.061 309.046C163.593 240.426 190.21 173.785 222.658 109.926C215.985 107.106 209.312 104.323 202.639 101.504C163.153 235.41 149.624 375.248 141.485 514.061C139.138 554.266 137.232 594.47 135.362 634.712C134.702 649.065 155.673 648.333 157.25 634.712C172.759 500.659 201.026 367.998 242.896 239.657C254.665 203.554 267.534 167.78 281.429 132.445C274.39 130.504 267.35 128.563 260.311 126.623C224.894 245.809 201.869 368.437 190.65 492.237C187.387 528.158 185.187 564.152 183.868 600.183C183.428 612.229 203.593 615.452 205.389 603.075C225.481 463.127 255.545 324.681 295.875 189.127C299.908 175.615 278.753 169.83 274.756 183.305C234.463 318.859 204.399 457.305 184.234 597.29C191.42 598.279 198.57 599.23 205.756 600.183C210.229 476.346 226.177 353.058 254.738 232.407C262.694 198.83 271.603 165.509 281.429 132.408C285.536 118.64 265.334 113.77 260.311 126.586C210.449 253.425 174.408 385.427 151.64 519.736C145.188 557.891 139.798 596.265 135.325 634.712C142.621 634.712 149.917 634.712 157.213 634.712C163.739 495.936 169.899 356.281 196.48 219.555C203.849 181.73 212.832 144.272 223.721 107.326C227.167 95.6452 209.385 87.6994 203.703 98.9041C178.295 148.922 156.26 200.624 137.892 253.645C119.156 307.727 105.408 362.908 92.8687 418.712C85.646 450.934 77.8 483.047 65.701 513.841C72.8871 514.793 80.0365 515.782 87.2225 516.734C87.4792 418.895 94.5919 321.129 109.367 224.425C111.457 210.621 90.3756 204.689 88.2491 218.603Z" fill="#1E3583"/>
</g>
<defs>
<clipPath id="clip0_74_1930">
<rect width="778" height="655" fill="white"/>
</clipPath>
</defs>
</svg>
